solid OpenSCAD_Model
  facet normal 0 -1 0
    outer loop
      vertex -23.5223 41 24.997
      vertex -21.0439 41 25.003
      vertex -23.5223 41 25.003
    endloop
  endfacet
  facet normal 0 -1 -0
    outer loop
      vertex -21.0439 41 25.003
      vertex -23.5223 41 24.997
      vertex -21.0439 41 24.997
    endloop
  endfacet
  facet normal 0 -1 0
    outer loop
      vertex -8.95611 41 24.997
      vertex -6.4777 41 25.003
      vertex -8.95611 41 25.003
    endloop
  endfacet
  facet normal 0 -1 -0
    outer loop
      vertex -6.4777 41 25.003
      vertex -8.95611 41 24.997
      vertex -6.4777 41 24.997
    endloop
  endfacet
  facet normal 0 -0.122419 0.992479
    outer loop
      vertex -24.4285 24.4801 21.1419
      vertex -26.8664 24.4801 21.1419
      vertex -25.2541 20.45 20.6448
    endloop
  endfacet
  facet normal 0 -0.122419 0.992479
    outer loop
      vertex -3.1336 24.4801 21.1419
      vertex -5.57154 24.4801 21.1419
      vertex -4.74586 20.45 20.6448
    endloop
  endfacet
  facet normal -5.22067e-06 -0.122417 0.992479
    outer loop
      vertex -4.74586 20.45 20.6448
      vertex -2.09327 19.3408 20.508
      vertex -3.1336 24.4801 21.1419
    endloop
  endfacet
  facet normal 0 -0.122405 0.99248
    outer loop
      vertex -25.2541 20.45 20.6448
      vertex -2.09327 19.3408 20.508
      vertex -4.74586 20.45 20.6448
    endloop
  endfacet
  facet normal 0 -0.122405 0.99248
    outer loop
      vertex -25.2541 20.45 20.6448
      vertex -27.9067 19.3408 20.508
      vertex -2.09327 19.3408 20.508
    endloop
  endfacet
  facet normal 5.22064e-06 -0.122417 0.992479
    outer loop
      vertex -27.9067 19.3408 20.508
      vertex -25.2541 20.45 20.6448
      vertex -26.8664 24.4801 21.1419
    endloop
  endfacet
  facet normal 0 -0.0245454 0.999699
    outer loop
      vertex -1.0479 14.1766 20.1271
      vertex -2.40001 9 20
      vertex 0 9 20
    endloop
  endfacet
  facet normal 0 -0.0245454 0.999699
    outer loop
      vertex -2.40001 9 20
      vertex -1.0479 14.1766 20.1271
      vertex -3.46059 14.1766 20.1271
    endloop
  endfacet
  facet normal 0 -0.0245454 0.999699
    outer loop
      vertex -28.9521 14.1766 20.1271
      vertex -27.6 9 20
      vertex -26.5394 14.1766 20.1271
    endloop
  endfacet
  facet normal 0 -0.0245454 0.999699
    outer loop
      vertex -27.6 9 20
      vertex -28.9521 14.1766 20.1271
      vertex -30 9 20
    endloop
  endfacet
  facet normal -1.72145e-05 -0.170972 0.985276
    outer loop
      vertex -6.35416 28.3 21.8047
      vertex -3.1336 24.4801 21.1419
      vertex -4.16638 29.582 22.0272
    endloop
  endfacet
  facet normal 0 -0.170958 0.985278
    outer loop
      vertex -3.1336 24.4801 21.1419
      vertex -6.35416 28.3 21.8047
      vertex -5.57154 24.4801 21.1419
    endloop
  endfacet
  facet normal 0 -0.171001 0.985271
    outer loop
      vertex -4.16638 29.582 22.0272
      vertex -23.6458 28.3 21.8047
      vertex -6.35416 28.3 21.8047
    endloop
  endfacet
  facet normal 0 -0.171001 0.985271
    outer loop
      vertex -25.8336 29.582 22.0272
      vertex -23.6458 28.3 21.8047
      vertex -4.16638 29.582 22.0272
    endloop
  endfacet
  facet normal 1.72143e-05 -0.170972 0.985276
    outer loop
      vertex -26.8664 24.4801 21.1419
      vertex -23.6458 28.3 21.8047
      vertex -25.8336 29.582 22.0272
    endloop
  endfacet
  facet normal 0 -0.170958 0.985278
    outer loop
      vertex -23.6458 28.3 21.8047
      vertex -26.8664 24.4801 21.1419
      vertex -24.4285 24.4801 21.1419
    endloop
  endfacet
  facet normal 0 -0.219101 0.975702
    outer loop
      vertex -22.3481 34.6344 23.1617
      vertex -24.8109 34.6344 23.1617
      vertex -23.1541 30.7 22.2782
    endloop
  endfacet
  facet normal 0 -0.219101 0.975702
    outer loop
      vertex -5.18912 34.6344 23.1617
      vertex -7.65193 34.6344 23.1617
      vertex -6.84586 30.7 22.2782
    endloop
  endfacet
  facet normal -1.72085e-05 -0.219095 0.975704
    outer loop
      vertex -6.84586 30.7 22.2782
      vertex -4.16638 29.582 22.0272
      vertex -5.18912 34.6344 23.1617
    endloop
  endfacet
  facet normal 0 -0.219055 0.975712
    outer loop
      vertex -23.1541 30.7 22.2782
      vertex -4.16638 29.582 22.0272
      vertex -6.84586 30.7 22.2782
    endloop
  endfacet
  facet normal 0 -0.219055 0.975712
    outer loop
      vertex -23.1541 30.7 22.2782
      vertex -25.8336 29.582 22.0272
      vertex -4.16638 29.582 22.0272
    endloop
  endfacet
  facet normal 1.72083e-05 -0.219095 0.975704
    outer loop
      vertex -25.8336 29.582 22.0272
      vertex -23.1541 30.7 22.2782
      vertex -24.8109 34.6344 23.1617
    endloop
  endfacet
  facet normal 0 -0.313377 0.949629
    outer loop
      vertex -21.0439 41 24.997
      vertex -23.5223 41 24.997
      vertex -21.0541 40.95 24.9805
    endloop
  endfacet
  facet normal 0 -0.313377 0.949629
    outer loop
      vertex -6.4777 41 24.997
      vertex -8.95611 41 24.997
      vertex -8.94586 40.95 24.9805
    endloop
  endfacet
  facet normal 6.26961e-06 -0.313657 0.949537
    outer loop
      vertex -8.94586 40.95 24.9805
      vertex -6.19936 39.625 24.5428
      vertex -6.4777 41 24.997
    endloop
  endfacet
  facet normal 0 -0.313668 0.949533
    outer loop
      vertex -21.0541 40.95 24.9805
      vertex -6.19936 39.625 24.5428
      vertex -8.94586 40.95 24.9805
    endloop
  endfacet
  facet normal -6.26952e-06 -0.313657 0.949537
    outer loop
      vertex -23.8006 39.625 24.5428
      vertex -21.0541 40.95 24.9805
      vertex -23.5223 41 24.997
    endloop
  endfacet
  facet normal 0 -0.313668 0.949533
    outer loop
      vertex -21.0541 40.95 24.9805
      vertex -23.8006 39.625 24.5428
      vertex -6.19936 39.625 24.5428
    endloop
  endfacet
  facet normal 2.7012e-06 -0.0735574 0.997291
    outer loop
      vertex -4.25415 18.05 20.4128
      vertex -1.0479 14.1766 20.1271
      vertex -2.09327 19.3408 20.508
    endloop
  endfacet
  facet normal 0 -0.0735597 0.997291
    outer loop
      vertex -1.0479 14.1766 20.1271
      vertex -4.25415 18.05 20.4128
      vertex -3.46059 14.1766 20.1271
    endloop
  endfacet
  facet normal 0 -0.0735529 0.997291
    outer loop
      vertex -2.09327 19.3408 20.508
      vertex -25.7458 18.05 20.4128
      vertex -4.25415 18.05 20.4128
    endloop
  endfacet
  facet normal 0 -0.0735529 0.997291
    outer loop
      vertex -27.9067 19.3408 20.508
      vertex -25.7458 18.05 20.4128
      vertex -2.09327 19.3408 20.508
    endloop
  endfacet
  facet normal -2.70117e-06 -0.0735574 0.997291
    outer loop
      vertex -28.9521 14.1766 20.1271
      vertex -25.7458 18.05 20.4128
      vertex -27.9067 19.3408 20.508
    endloop
  endfacet
  facet normal 0 -0.0735597 0.997291
    outer loop
      vertex -25.7458 18.05 20.4128
      vertex -28.9521 14.1766 20.1271
      vertex -26.5394 14.1766 20.1271
    endloop
  endfacet
  facet normal -1.6403e-06 -0.266716 0.963775
    outer loop
      vertex -8.45415 38.55 24.2453
      vertex -5.18912 34.6344 23.1617
      vertex -6.19936 39.625 24.5428
    endloop
  endfacet
  facet normal 0 -0.266714 0.963776
    outer loop
      vertex -5.18912 34.6344 23.1617
      vertex -8.45415 38.55 24.2453
      vertex -7.65193 34.6344 23.1617
    endloop
  endfacet
  facet normal 0 -0.266719 0.963774
    outer loop
      vertex -6.19936 39.625 24.5428
      vertex -21.5459 38.55 24.2453
      vertex -8.45415 38.55 24.2453
    endloop
  endfacet
  facet normal 0 -0.266719 0.963774
    outer loop
      vertex -23.8006 39.625 24.5428
      vertex -21.5459 38.55 24.2453
      vertex -6.19936 39.625 24.5428
    endloop
  endfacet
  facet normal 1.64035e-06 -0.266716 0.963775
    outer loop
      vertex -24.8109 34.6344 23.1617
      vertex -21.5459 38.55 24.2453
      vertex -23.8006 39.625 24.5428
    endloop
  endfacet
  facet normal 0 -0.266714 0.963776
    outer loop
      vertex -21.5459 38.55 24.2453
      vertex -24.8109 34.6344 23.1617
      vertex -22.3481 34.6344 23.1617
    endloop
  endfacet
  facet normal -1.10606e-05 -0.122418 0.992479
    outer loop
      vertex -12.6541 59.05 29.0468
      vertex -9.82179 57.5199 28.8581
      vertex -10.8621 62.6592 29.492
    endloop
  endfacet
  facet normal 0 -0.122398 0.992481
    outer loop
      vertex -9.82179 57.5199 28.8581
      vertex -12.6541 59.05 29.0468
      vertex -12.3407 57.5199 28.8581
    endloop
  endfacet
  facet normal -2.56132e-05 -0.122411 0.992479
    outer loop
      vertex -10.8621 62.6592 29.492
      vertex -13.1459 61.45 29.3428
      vertex -12.6541 59.05 29.0468
    endloop
  endfacet
  facet normal 0 -0.122459 0.992474
    outer loop
      vertex -13.1459 61.45 29.3428
      vertex -10.8621 62.6592 29.492
      vertex -13.3936 62.6592 29.492
    endloop
  endfacet
  facet normal 0 -0.122406 0.99248
    outer loop
      vertex -16.8541 61.45 29.3428
      vertex -12.6541 59.05 29.0468
      vertex -13.1459 61.45 29.3428
    endloop
  endfacet
  facet normal 0 -0.122406 0.99248
    outer loop
      vertex -12.6541 59.05 29.0468
      vertex -16.8541 61.45 29.3428
      vertex -17.3459 59.05 29.0468
    endloop
  endfacet
  facet normal 0 -0.122459 0.992474
    outer loop
      vertex -19.1379 62.6592 29.492
      vertex -16.8541 61.45 29.3428
      vertex -16.6064 62.6592 29.492
    endloop
  endfacet
  facet normal 2.56132e-05 -0.122411 0.992479
    outer loop
      vertex -16.8541 61.45 29.3428
      vertex -19.1379 62.6592 29.492
      vertex -17.3459 59.05 29.0468
    endloop
  endfacet
  facet normal 1.10606e-05 -0.122418 0.992479
    outer loop
      vertex -20.1782 57.5199 28.8581
      vertex -17.3459 59.05 29.0468
      vertex -19.1379 62.6592 29.492
    endloop
  endfacet
  facet normal 0 -0.122398 0.992481
    outer loop
      vertex -17.3459 59.05 29.0468
      vertex -20.1782 57.5199 28.8581
      vertex -17.6593 57.5199 28.8581
    endloop
  endfacet
  facet normal 0 -0.266715 0.963775
    outer loop
      vertex -22.2337 47.3656 26.8383
      vertex -20.7622 42.375 25.4572
      vertex -19.7397 47.3656 26.8383
    endloop
  endfacet
  facet normal 0 -0.266715 0.963775
    outer loop
      vertex -20.7622 42.375 25.4572
      vertex -22.2337 47.3656 26.8383
      vertex -23.244 42.375 25.4572
    endloop
  endfacet
  facet normal 0 -0.266715 0.963775
    outer loop
      vertex -7.76627 47.3656 26.8383
      vertex -9.23781 42.375 25.4572
      vertex -6.75603 42.375 25.4572
    endloop
  endfacet
  facet normal 0 -0.266715 0.963775
    outer loop
      vertex -9.23781 42.375 25.4572
      vertex -7.76627 47.3656 26.8383
      vertex -10.2603 47.3656 26.8383
    endloop
  endfacet
  facet normal 0 -0.170969 0.985276
    outer loop
      vertex -20.1782 57.5199 28.8581
      vertex -18.7046 52.418 27.9728
      vertex -17.6593 57.5199 28.8581
    endloop
  endfacet
  facet normal 0 -0.170969 0.985276
    outer loop
      vertex -18.7046 52.418 27.9728
      vertex -20.1782 57.5199 28.8581
      vertex -21.211 52.418 27.9728
    endloop
  endfacet
  facet normal 0 -0.170969 0.985276
    outer loop
      vertex -9.82179 57.5199 28.8581
      vertex -11.2954 52.418 27.9728
      vertex -8.78901 52.418 27.9728
    endloop
  endfacet
  facet normal 0 -0.170969 0.985276
    outer loop
      vertex -11.2954 52.418 27.9728
      vertex -9.82179 57.5199 28.8581
      vertex -12.3407 57.5199 28.8581
    endloop
  endfacet
  facet normal 0 -0.073558 0.997291
    outer loop
      vertex -18.0925 67.8234 29.8729
      vertex -16.6064 62.6592 29.492
      vertex -15.5484 67.8234 29.8729
    endloop
  endfacet
  facet normal 0 -0.073558 0.997291
    outer loop
      vertex -16.6064 62.6592 29.492
      vertex -18.0925 67.8234 29.8729
      vertex -19.1379 62.6592 29.492
    endloop
  endfacet
  facet normal 0 -0.073558 0.997291
    outer loop
      vertex -11.9075 67.8234 29.8729
      vertex -13.3936 62.6592 29.492
      vertex -10.8621 62.6592 29.492
    endloop
  endfacet
  facet normal 0 -0.073558 0.997291
    outer loop
      vertex -13.3936 62.6592 29.492
      vertex -11.9075 67.8234 29.8729
      vertex -14.4516 67.8234 29.8729
    endloop
  endfacet
  facet normal -1.59458e-05 -0.0245177 0.999699
    outer loop
      vertex -15 70.5 29.9386
      vertex -12.548 70.9877 29.9506
      vertex -12.6903 71.4567 29.9621
    endloop
  endfacet
  facet normal -1.28565e-05 -0.0245252 0.999699
    outer loop
      vertex -15 70.5 29.9386
      vertex -12.6903 71.4567 29.9621
      vertex -12.9213 71.8889 29.9727
    endloop
  endfacet
  facet normal -3.04969e-06 -0.0245398 0.999699
    outer loop
      vertex -15 70.5 29.9386
      vertex -12.9213 71.8889 29.9727
      vertex -13.2322 72.2678 29.982
    endloop
  endfacet
  facet normal 9.75571e-05 -0.0246404 0.999696
    outer loop
      vertex -15 70.5 29.9386
      vertex -13.2322 72.2678 29.982
      vertex -13.6111 72.5787 29.9897
    endloop
  endfacet
  facet normal -0.00013396 -0.0244858 0.9997
    outer loop
      vertex -15 70.5 29.9386
      vertex -13.6111 72.5787 29.9897
      vertex -14.0433 72.8097 29.9953
    endloop
  endfacet
  facet normal -1.1315e-05 -0.024541 0.999699
    outer loop
      vertex -12.548 70.9877 29.9506
      vertex -15 70.5 29.9386
      vertex -14.4516 67.8234 29.8729
    endloop
  endfacet
  facet normal 1.27403e-05 -0.0245465 0.999699
    outer loop
      vertex -15 70.5 29.9386
      vertex -14.0433 72.8097 29.9953
      vertex -14.5123 72.952 29.9988
    endloop
  endfacet
  facet normal 4.32923e-05 -0.0245526 0.999699
    outer loop
      vertex -15 70.5 29.9386
      vertex -14.5123 72.952 29.9988
      vertex -15 73 30
    endloop
  endfacet
  facet normal 0 -0.0245478 0.999699
    outer loop
      vertex -12.548 70.9877 29.9506
      vertex -14.4516 67.8234 29.8729
      vertex -11.9075 67.8234 29.8729
    endloop
  endfacet
  facet normal -4.32923e-05 -0.0245526 0.999699
    outer loop
      vertex -15.4877 72.952 29.9988
      vertex -15 70.5 29.9386
      vertex -15 73 30
    endloop
  endfacet
  facet normal -1.27403e-05 -0.0245465 0.999699
    outer loop
      vertex -15.9567 72.8097 29.9953
      vertex -15 70.5 29.9386
      vertex -15.4877 72.952 29.9988
    endloop
  endfacet
  facet normal 0.00013396 -0.0244858 0.9997
    outer loop
      vertex -16.3889 72.5787 29.9897
      vertex -15 70.5 29.9386
      vertex -15.9567 72.8097 29.9953
    endloop
  endfacet
  facet normal -9.75571e-05 -0.0246404 0.999696
    outer loop
      vertex -16.7678 72.2678 29.982
      vertex -15 70.5 29.9386
      vertex -16.3889 72.5787 29.9897
    endloop
  endfacet
  facet normal 3.04969e-06 -0.0245398 0.999699
    outer loop
      vertex -17.0787 71.8889 29.9727
      vertex -15 70.5 29.9386
      vertex -16.7678 72.2678 29.982
    endloop
  endfacet
  facet normal 1.28565e-05 -0.0245252 0.999699
    outer loop
      vertex -17.3097 71.4567 29.9621
      vertex -15 70.5 29.9386
      vertex -17.0787 71.8889 29.9727
    endloop
  endfacet
  facet normal 1.59458e-05 -0.0245177 0.999699
    outer loop
      vertex -15 70.5 29.9386
      vertex -17.3097 71.4567 29.9621
      vertex -17.452 70.9877 29.9506
    endloop
  endfacet
  facet normal 1.1315e-05 -0.024541 0.999699
    outer loop
      vertex -15 70.5 29.9386
      vertex -17.452 70.9877 29.9506
      vertex -15.5484 67.8234 29.8729
    endloop
  endfacet
  facet normal 0 -0.0245478 0.999699
    outer loop
      vertex -15.5484 67.8234 29.8729
      vertex -17.452 70.9877 29.9506
      vertex -18.0925 67.8234 29.8729
    endloop
  endfacet
  facet normal 3.96198e-06 -0.21909 0.975705
    outer loop
      vertex -10.5542 48.8 27.1604
      vertex -7.76627 47.3656 26.8383
      vertex -8.78901 52.418 27.9728
    endloop
  endfacet
  facet normal 0 -0.219098 0.975703
    outer loop
      vertex -7.76627 47.3656 26.8383
      vertex -10.5542 48.8 27.1604
      vertex -10.2603 47.3656 26.8383
    endloop
  endfacet
  facet normal -3.21157e-06 -0.219087 0.975705
    outer loop
      vertex -8.78901 52.418 27.9728
      vertex -11.0459 51.2 27.6993
      vertex -10.5542 48.8 27.1604
    endloop
  endfacet
  facet normal 0 -0.219093 0.975704
    outer loop
      vertex -11.0459 51.2 27.6993
      vertex -8.78901 52.418 27.9728
      vertex -11.2954 52.418 27.9728
    endloop
  endfacet
  facet normal 0 -0.219087 0.975705
    outer loop
      vertex -18.9541 51.2 27.6993
      vertex -10.5542 48.8 27.1604
      vertex -11.0459 51.2 27.6993
    endloop
  endfacet
  facet normal 0 -0.219087 0.975705
    outer loop
      vertex -10.5542 48.8 27.1604
      vertex -18.9541 51.2 27.6993
      vertex -19.4458 48.8 27.1604
    endloop
  endfacet
  facet normal 3.21156e-06 -0.219087 0.975705
    outer loop
      vertex -21.211 52.418 27.9728
      vertex -19.4458 48.8 27.1604
      vertex -18.9541 51.2 27.6993
    endloop
  endfacet
  facet normal 0 -0.219093 0.975704
    outer loop
      vertex -21.211 52.418 27.9728
      vertex -18.9541 51.2 27.6993
      vertex -18.7046 52.418 27.9728
    endloop
  endfacet
  facet normal -3.96201e-06 -0.21909 0.975705
    outer loop
      vertex -19.4458 48.8 27.1604
      vertex -21.211 52.418 27.9728
      vertex -22.2337 47.3656 26.8383
    endloop
  endfacet
  facet normal 0 -0.219098 0.975703
    outer loop
      vertex -19.4458 48.8 27.1604
      vertex -22.2337 47.3656 26.8383
      vertex -19.7397 47.3656 26.8383
    endloop
  endfacet
  facet normal 0 -0.313658 0.949536
    outer loop
      vertex -23.244 42.375 25.4572
      vertex -21.0439 41 25.003
      vertex -20.7622 42.375 25.4572
    endloop
  endfacet
  facet normal 0 -0.313658 0.949536
    outer loop
      vertex -21.0439 41 25.003
      vertex -23.244 42.375 25.4572
      vertex -23.5223 41 25.003
    endloop
  endfacet
  facet normal 0 -0.313658 0.949536
    outer loop
      vertex -6.75603 42.375 25.4572
      vertex -8.95611 41 25.003
      vertex -6.4777 41 25.003
    endloop
  endfacet
  facet normal 0 -0.313658 0.949536
    outer loop
      vertex -8.95611 41 25.003
      vertex -6.75603 42.375 25.4572
      vertex -9.23781 42.375 25.4572
    endloop
  endfacet
  facet normal 0 0 1
    outer loop
      vertex -2.40001 9 20
      vertex -5.58748 4.88042 20
      vertex -5.55 4.5 20
    endloop
  endfacet
  facet normal 0 0 1
    outer loop
      vertex -2.40001 9 20
      vertex -5.69844 5.24623 20
      vertex -5.58748 4.88042 20
    endloop
  endfacet
  facet normal 0 0 1
    outer loop
      vertex -2.40001 9 20
      vertex -5.87865 5.58336 20
      vertex -5.69844 5.24623 20
    endloop
  endfacet
  facet normal 0 0 1
    outer loop
      vertex -2.40001 9 20
      vertex -6.12115 5.87885 20
      vertex -5.87865 5.58336 20
    endloop
  endfacet
  facet normal 0 0 1
    outer loop
      vertex -2.40001 9 20
      vertex -6.41664 6.12135 20
      vertex -6.12115 5.87885 20
    endloop
  endfacet
  facet normal 0 0 1
    outer loop
      vertex -2.40001 9 20
      vertex -6.75377 6.30156 20
      vertex -6.41664 6.12135 20
    endloop
  endfacet
  facet normal 0 0 1
    outer loop
      vertex -2.40001 9 20
      vertex -7.11958 6.41252 20
      vertex -6.75377 6.30156 20
    endloop
  endfacet
  facet normal 0 0 1
    outer loop
      vertex -2.40001 9 20
      vertex -7.5 6.45 20
      vertex -7.11958 6.41252 20
    endloop
  endfacet
  facet normal 0 0 1
    outer loop
      vertex -2.40001 9 20
      vertex -7.88043 6.41252 20
      vertex -7.5 6.45 20
    endloop
  endfacet
  facet normal 0 0 1
    outer loop
      vertex -2.40001 9 20
      vertex -8.24625 6.30156 20
      vertex -7.88043 6.41252 20
    endloop
  endfacet
  facet normal 0 0 1
    outer loop
      vertex -9.41254 4.88042 20
      vertex -20.55 4.5 20
      vertex -9.45001 4.5 20
    endloop
  endfacet
  facet normal 0 0 1
    outer loop
      vertex -20.5875 4.88042 20
      vertex -9.41254 4.88042 20
      vertex -9.30157 5.24623 20
    endloop
  endfacet
  facet normal 0 0 1
    outer loop
      vertex -20.6984 5.24623 20
      vertex -9.30157 5.24623 20
      vertex -9.12137 5.58336 20
    endloop
  endfacet
  facet normal 0 0 1
    outer loop
      vertex -20.8786 5.58336 20
      vertex -9.12137 5.58336 20
      vertex -8.87886 5.87885 20
    endloop
  endfacet
  facet normal 0 0 1
    outer loop
      vertex -21.1211 5.87885 20
      vertex -8.87886 5.87885 20
      vertex -8.58337 6.12135 20
    endloop
  endfacet
  facet normal 0 0 1
    outer loop
      vertex -21.4166 6.12135 20
      vertex -8.58337 6.12135 20
      vertex -8.24625 6.30156 20
    endloop
  endfacet
  facet normal 0 0 1
    outer loop
      vertex -21.7538 6.30156 20
      vertex -8.24625 6.30156 20
      vertex -2.40001 9 20
    endloop
  endfacet
  facet normal 0 0 1
    outer loop
      vertex -9.41254 4.88042 20
      vertex -20.5875 4.88042 20
      vertex -20.55 4.5 20
    endloop
  endfacet
  facet normal 0 0 1
    outer loop
      vertex -9.30157 5.24623 20
      vertex -20.6984 5.24623 20
      vertex -20.5875 4.88042 20
    endloop
  endfacet
  facet normal 0 0 1
    outer loop
      vertex -9.12137 5.58336 20
      vertex -20.8786 5.58336 20
      vertex -20.6984 5.24623 20
    endloop
  endfacet
  facet normal 0 0 1
    outer loop
      vertex -8.87886 5.87885 20
      vertex -21.1211 5.87885 20
      vertex -20.8786 5.58336 20
    endloop
  endfacet
  facet normal 0 0 1
    outer loop
      vertex -8.58337 6.12135 20
      vertex -21.4166 6.12135 20
      vertex -21.1211 5.87885 20
    endloop
  endfacet
  facet normal 0 0 1
    outer loop
      vertex -8.24625 6.30156 20
      vertex -21.7538 6.30156 20
      vertex -21.4166 6.12135 20
    endloop
  endfacet
  facet normal 0 0 1
    outer loop
      vertex -2.40001 9 20
      vertex -22.1196 6.41252 20
      vertex -21.7538 6.30156 20
    endloop
  endfacet
  facet normal -0 0 1
    outer loop
      vertex -27.6 9 20
      vertex -22.1196 6.41252 20
      vertex -2.40001 9 20
    endloop
  endfacet
  facet normal 0 0 1
    outer loop
      vertex -22.1196 6.41252 20
      vertex -27.6 9 20
      vertex -22.5 6.45 20
    endloop
  endfacet
  facet normal 0 0 1
    outer loop
      vertex -24.4125 4.88042 20
      vertex -27.6 9 20
      vertex -24.45 4.5 20
    endloop
  endfacet
  facet normal 0 0 1
    outer loop
      vertex -24.3016 5.24623 20
      vertex -27.6 9 20
      vertex -24.4125 4.88042 20
    endloop
  endfacet
  facet normal 0 0 1
    outer loop
      vertex -24.1214 5.58336 20
      vertex -27.6 9 20
      vertex -24.3016 5.24623 20
    endloop
  endfacet
  facet normal 0 0 1
    outer loop
      vertex -23.8788 5.87885 20
      vertex -27.6 9 20
      vertex -24.1214 5.58336 20
    endloop
  endfacet
  facet normal 0 0 1
    outer loop
      vertex -23.5834 6.12135 20
      vertex -27.6 9 20
      vertex -23.8788 5.87885 20
    endloop
  endfacet
  facet normal 0 0 1
    outer loop
      vertex -23.2462 6.30156 20
      vertex -27.6 9 20
      vertex -23.5834 6.12135 20
    endloop
  endfacet
  facet normal 0 0 1
    outer loop
      vertex -22.8804 6.41252 20
      vertex -27.6 9 20
      vertex -23.2462 6.30156 20
    endloop
  endfacet
  facet normal 0 0 1
    outer loop
      vertex -22.5 6.45 20
      vertex -27.6 9 20
      vertex -22.8804 6.41252 20
    endloop
  endfacet
  facet normal 0 0 1
    outer loop
      vertex -5.55 4.5 20
      vertex 0 9 20
      vertex -2.40001 9 20
    endloop
  endfacet
  facet normal 0 0 1
    outer loop
      vertex 0 9 20
      vertex -5.55 4.5 20
      vertex 0 0 20
    endloop
  endfacet
  facet normal -0 0 1
    outer loop
      vertex -5.58748 4.11957 20
      vertex 0 0 20
      vertex -5.55 4.5 20
    endloop
  endfacet
  facet normal -0 0 1
    outer loop
      vertex -5.69844 3.75375 20
      vertex 0 0 20
      vertex -5.58748 4.11957 20
    endloop
  endfacet
  facet normal -0 0 1
    outer loop
      vertex -5.87865 3.41663 20
      vertex 0 0 20
      vertex -5.69844 3.75375 20
    endloop
  endfacet
  facet normal -0 0 1
    outer loop
      vertex -6.12115 3.12114 20
      vertex 0 0 20
      vertex -5.87865 3.41663 20
    endloop
  endfacet
  facet normal -0 0 1
    outer loop
      vertex -6.41664 2.87863 20
      vertex 0 0 20
      vertex -6.12115 3.12114 20
    endloop
  endfacet
  facet normal -0 0 1
    outer loop
      vertex -6.75377 2.69843 20
      vertex 0 0 20
      vertex -6.41664 2.87863 20
    endloop
  endfacet
  facet normal -0 0 1
    outer loop
      vertex -7.11958 2.58746 20
      vertex 0 0 20
      vertex -6.75377 2.69843 20
    endloop
  endfacet
  facet normal -0 0 1
    outer loop
      vertex -7.5 2.54999 20
      vertex 0 0 20
      vertex -7.11958 2.58746 20
    endloop
  endfacet
  facet normal 0 0 1
    outer loop
      vertex -7.88043 2.58746 20
      vertex 0 0 20
      vertex -7.5 2.54999 20
    endloop
  endfacet
  facet normal 0 0 1
    outer loop
      vertex -22.1196 2.58746 20
      vertex -7.88043 2.58746 20
      vertex -8.24625 2.69843 20
    endloop
  endfacet
  facet normal -0 0 1
    outer loop
      vertex -20.55 4.5 20
      vertex -9.41254 4.11957 20
      vertex -9.45001 4.5 20
    endloop
  endfacet
  facet normal 0 0 1
    outer loop
      vertex -20.5875 4.11957 20
      vertex -9.41254 4.11957 20
      vertex -20.55 4.5 20
    endloop
  endfacet
  facet normal 0 0 1
    outer loop
      vertex -9.41254 4.11957 20
      vertex -20.5875 4.11957 20
      vertex -9.30157 3.75375 20
    endloop
  endfacet
  facet normal 0 0 1
    outer loop
      vertex -20.6984 3.75375 20
      vertex -9.30157 3.75375 20
      vertex -20.5875 4.11957 20
    endloop
  endfacet
  facet normal 0 0 1
    outer loop
      vertex -9.30157 3.75375 20
      vertex -20.6984 3.75375 20
      vertex -9.12137 3.41663 20
    endloop
  endfacet
  facet normal 0 0 1
    outer loop
      vertex -20.8786 3.41663 20
      vertex -9.12137 3.41663 20
      vertex -20.6984 3.75375 20
    endloop
  endfacet
  facet normal 0 0 1
    outer loop
      vertex -9.12137 3.41663 20
      vertex -20.8786 3.41663 20
      vertex -8.87886 3.12114 20
    endloop
  endfacet
  facet normal 0 0 1
    outer loop
      vertex -21.1211 3.12114 20
      vertex -8.87886 3.12114 20
      vertex -20.8786 3.41663 20
    endloop
  endfacet
  facet normal 0 0 1
    outer loop
      vertex -8.87886 3.12114 20
      vertex -21.1211 3.12114 20
      vertex -8.58337 2.87863 20
    endloop
  endfacet
  facet normal 0 0 1
    outer loop
      vertex -21.4166 2.87863 20
      vertex -8.58337 2.87863 20
      vertex -21.1211 3.12114 20
    endloop
  endfacet
  facet normal 0 0 1
    outer loop
      vertex -8.58337 2.87863 20
      vertex -21.4166 2.87863 20
      vertex -8.24625 2.69843 20
    endloop
  endfacet
  facet normal 0 0 1
    outer loop
      vertex -21.7538 2.69843 20
      vertex -8.24625 2.69843 20
      vertex -21.4166 2.87863 20
    endloop
  endfacet
  facet normal 0 0 1
    outer loop
      vertex -22.1196 2.58746 20
      vertex -8.24625 2.69843 20
      vertex -21.7538 2.69843 20
    endloop
  endfacet
  facet normal 0 0 1
    outer loop
      vertex -7.88043 2.58746 20
      vertex -22.1196 2.58746 20
      vertex 0 0 20
    endloop
  endfacet
  facet normal 0 0 1
    outer loop
      vertex -30 0 20
      vertex -22.1196 2.58746 20
      vertex -22.5 2.54999 20
    endloop
  endfacet
  facet normal 0 0 1
    outer loop
      vertex -30 0 20
      vertex -22.5 2.54999 20
      vertex -22.8804 2.58746 20
    endloop
  endfacet
  facet normal -0 0 1
    outer loop
      vertex -30 9 20
      vertex -24.45 4.5 20
      vertex -27.6 9 20
    endloop
  endfacet
  facet normal 0 0 1
    outer loop
      vertex -30 0 20
      vertex -24.45 4.5 20
      vertex -30 9 20
    endloop
  endfacet
  facet normal 0 0 1
    outer loop
      vertex -24.45 4.5 20
      vertex -30 0 20
      vertex -24.4125 4.11957 20
    endloop
  endfacet
  facet normal 0 0 1
    outer loop
      vertex -24.4125 4.11957 20
      vertex -30 0 20
      vertex -24.3016 3.75375 20
    endloop
  endfacet
  facet normal 0 0 1
    outer loop
      vertex -24.3016 3.75375 20
      vertex -30 0 20
      vertex -24.1214 3.41663 20
    endloop
  endfacet
  facet normal 0 0 1
    outer loop
      vertex -22.1196 2.58746 20
      vertex -30 0 20
      vertex 0 0 20
    endloop
  endfacet
  facet normal 0 0 1
    outer loop
      vertex -23.2462 2.69843 20
      vertex -30 0 20
      vertex -22.8804 2.58746 20
    endloop
  endfacet
  facet normal 0 0 1
    outer loop
      vertex -23.5834 2.87863 20
      vertex -30 0 20
      vertex -23.2462 2.69843 20
    endloop
  endfacet
  facet normal 0 0 1
    outer loop
      vertex -23.8788 3.12114 20
      vertex -30 0 20
      vertex -23.5834 2.87863 20
    endloop
  endfacet
  facet normal 0 0 1
    outer loop
      vertex -24.1214 3.41663 20
      vertex -30 0 20
      vertex -23.8788 3.12114 20
    endloop
  endfacet
  facet normal 0 0 -1
    outer loop
      vertex -10.5542 48.8 0
      vertex -18.9541 51.2 0
      vertex -11.0459 51.2 0
    endloop
  endfacet
  facet normal 0 -0 -1
    outer loop
      vertex -18.9541 51.2 0
      vertex -10.5542 48.8 0
      vertex -19.4458 48.8 0
    endloop
  endfacet
  facet normal 0 0 -1
    outer loop
      vertex -8.45415 38.55 0
      vertex -21.0541 40.95 0
      vertex -8.94586 40.95 0
    endloop
  endfacet
  facet normal 0 -0 -1
    outer loop
      vertex -21.0541 40.95 0
      vertex -8.45415 38.55 0
      vertex -21.5459 38.55 0
    endloop
  endfacet
  facet normal 0 0 -1
    outer loop
      vertex -6.35416 28.3 0
      vertex -23.1541 30.7 0
      vertex -6.84586 30.7 0
    endloop
  endfacet
  facet normal 0 -0 -1
    outer loop
      vertex -23.1541 30.7 0
      vertex -6.35416 28.3 0
      vertex -23.6458 28.3 0
    endloop
  endfacet
  facet normal 0 0 -1
    outer loop
      vertex -4.25415 18.05 0
      vertex -25.2541 20.45 0
      vertex -4.74586 20.45 0
    endloop
  endfacet
  facet normal 0 -0 -1
    outer loop
      vertex -25.2541 20.45 0
      vertex -4.25415 18.05 0
      vertex -25.7458 18.05 0
    endloop
  endfacet
  facet normal 0 0 -1
    outer loop
      vertex -5.55 4.5 0
      vertex 0 9 0
      vertex 0 0 0
    endloop
  endfacet
  facet normal -0 0 -1
    outer loop
      vertex 0 9 0
      vertex -5.55 4.5 0
      vertex -2.40001 9 0
    endloop
  endfacet
  facet normal 0 0 -1
    outer loop
      vertex 0 0 0
      vertex -5.58748 4.11957 0
      vertex -5.55 4.5 0
    endloop
  endfacet
  facet normal 0 0 -1
    outer loop
      vertex 0 0 0
      vertex -5.69844 3.75375 0
      vertex -5.58748 4.11957 0
    endloop
  endfacet
  facet normal 0 0 -1
    outer loop
      vertex 0 0 0
      vertex -5.87865 3.41663 0
      vertex -5.69844 3.75375 0
    endloop
  endfacet
  facet normal 0 0 -1
    outer loop
      vertex 0 0 0
      vertex -6.12115 3.12114 0
      vertex -5.87865 3.41663 0
    endloop
  endfacet
  facet normal 0 0 -1
    outer loop
      vertex 0 0 0
      vertex -6.41664 2.87863 0
      vertex -6.12115 3.12114 0
    endloop
  endfacet
  facet normal 0 0 -1
    outer loop
      vertex 0 0 0
      vertex -6.75377 2.69843 0
      vertex -6.41664 2.87863 0
    endloop
  endfacet
  facet normal 0 0 -1
    outer loop
      vertex 0 0 0
      vertex -7.11958 2.58746 0
      vertex -6.75377 2.69843 0
    endloop
  endfacet
  facet normal 0 0 -1
    outer loop
      vertex 0 0 0
      vertex -7.5 2.54999 0
      vertex -7.11958 2.58746 0
    endloop
  endfacet
  facet normal 0 0 -1
    outer loop
      vertex 0 0 0
      vertex -7.88043 2.58746 0
      vertex -7.5 2.54999 0
    endloop
  endfacet
  facet normal 0 0 -1
    outer loop
      vertex -22.1196 2.58746 0
      vertex -7.88043 2.58746 0
      vertex 0 0 0
    endloop
  endfacet
  facet normal 0 0 -1
    outer loop
      vertex -9.41254 4.11957 0
      vertex -20.55 4.5 0
      vertex -9.45001 4.5 0
    endloop
  endfacet
  facet normal 0 0 -1
    outer loop
      vertex -20.5875 4.11957 0
      vertex -9.41254 4.11957 0
      vertex -9.30157 3.75375 0
    endloop
  endfacet
  facet normal 0 0 -1
    outer loop
      vertex -20.6984 3.75375 0
      vertex -9.30157 3.75375 0
      vertex -9.12137 3.41663 0
    endloop
  endfacet
  facet normal 0 0 -1
    outer loop
      vertex -20.8786 3.41663 0
      vertex -9.12137 3.41663 0
      vertex -8.87886 3.12114 0
    endloop
  endfacet
  facet normal 0 0 -1
    outer loop
      vertex -21.1211 3.12114 0
      vertex -8.87886 3.12114 0
      vertex -8.58337 2.87863 0
    endloop
  endfacet
  facet normal 0 0 -1
    outer loop
      vertex -21.4166 2.87863 0
      vertex -8.58337 2.87863 0
      vertex -8.24625 2.69843 0
    endloop
  endfacet
  facet normal 0 0 -1
    outer loop
      vertex -7.88043 2.58746 0
      vertex -22.1196 2.58746 0
      vertex -8.24625 2.69843 0
    endloop
  endfacet
  facet normal 0 0 -1
    outer loop
      vertex -9.41254 4.11957 0
      vertex -20.5875 4.11957 0
      vertex -20.55 4.5 0
    endloop
  endfacet
  facet normal 0 0 -1
    outer loop
      vertex -9.30157 3.75375 0
      vertex -20.6984 3.75375 0
      vertex -20.5875 4.11957 0
    endloop
  endfacet
  facet normal 0 0 -1
    outer loop
      vertex -9.12137 3.41663 0
      vertex -20.8786 3.41663 0
      vertex -20.6984 3.75375 0
    endloop
  endfacet
  facet normal 0 0 -1
    outer loop
      vertex -8.87886 3.12114 0
      vertex -21.1211 3.12114 0
      vertex -20.8786 3.41663 0
    endloop
  endfacet
  facet normal 0 0 -1
    outer loop
      vertex -8.58337 2.87863 0
      vertex -21.4166 2.87863 0
      vertex -21.1211 3.12114 0
    endloop
  endfacet
  facet normal 0 0 -1
    outer loop
      vertex -8.24625 2.69843 0
      vertex -21.7538 2.69843 0
      vertex -21.4166 2.87863 0
    endloop
  endfacet
  facet normal -0 0 -1
    outer loop
      vertex -8.24625 2.69843 0
      vertex -22.1196 2.58746 0
      vertex -21.7538 2.69843 0
    endloop
  endfacet
  facet normal 0 0 -1
    outer loop
      vertex -30 0 0
      vertex -22.1196 2.58746 0
      vertex 0 0 0
    endloop
  endfacet
  facet normal 0 0 -1
    outer loop
      vertex -22.1196 2.58746 0
      vertex -30 0 0
      vertex -22.5 2.54999 0
    endloop
  endfacet
  facet normal 0 0 -1
    outer loop
      vertex -30 0 0
      vertex -24.45 4.5 0
      vertex -24.4125 4.11957 0
    endloop
  endfacet
  facet normal 0 0 -1
    outer loop
      vertex -30 0 0
      vertex -24.4125 4.11957 0
      vertex -24.3016 3.75375 0
    endloop
  endfacet
  facet normal 0 0 -1
    outer loop
      vertex -30 0 0
      vertex -24.3016 3.75375 0
      vertex -24.1214 3.41663 0
    endloop
  endfacet
  facet normal -0 0 -1
    outer loop
      vertex -24.45 4.5 0
      vertex -30 0 0
      vertex -30 9 0
    endloop
  endfacet
  facet normal -0 0 -1
    outer loop
      vertex -23.8788 3.12114 0
      vertex -30 0 0
      vertex -24.1214 3.41663 0
    endloop
  endfacet
  facet normal -0 0 -1
    outer loop
      vertex -23.5834 2.87863 0
      vertex -30 0 0
      vertex -23.8788 3.12114 0
    endloop
  endfacet
  facet normal -0 0 -1
    outer loop
      vertex -23.2462 2.69843 0
      vertex -30 0 0
      vertex -23.5834 2.87863 0
    endloop
  endfacet
  facet normal -0 0 -1
    outer loop
      vertex -22.8804 2.58746 0
      vertex -30 0 0
      vertex -23.2462 2.69843 0
    endloop
  endfacet
  facet normal -0 0 -1
    outer loop
      vertex -22.5 2.54999 0
      vertex -30 0 0
      vertex -22.8804 2.58746 0
    endloop
  endfacet
  facet normal 0 0 -1
    outer loop
      vertex -4.25415 18.05 0
      vertex 0 9 0
      vertex -2.40001 9 0
    endloop
  endfacet
  facet normal 0 0 -1
    outer loop
      vertex -4.74586 20.45 0
      vertex 0 9 0
      vertex -4.25415 18.05 0
    endloop
  endfacet
  facet normal 0 0 -1
    outer loop
      vertex -6.35416 28.3 0
      vertex 0 9 0
      vertex -4.74586 20.45 0
    endloop
  endfacet
  facet normal 0 0 -1
    outer loop
      vertex -6.84586 30.7 0
      vertex 0 9 0
      vertex -6.35416 28.3 0
    endloop
  endfacet
  facet normal 0 0 -1
    outer loop
      vertex -8.45415 38.55 0
      vertex 0 9 0
      vertex -6.84586 30.7 0
    endloop
  endfacet
  facet normal 0 0 -1
    outer loop
      vertex -8.94586 40.95 0
      vertex 0 9 0
      vertex -8.45415 38.55 0
    endloop
  endfacet
  facet normal 0 0 -1
    outer loop
      vertex -12.548 70.9877 0
      vertex -8.94586 40.95 0
      vertex -10.5542 48.8 0
    endloop
  endfacet
  facet normal 0 0 -1
    outer loop
      vertex -12.548 70.9877 0
      vertex -10.5542 48.8 0
      vertex -11.0459 51.2 0
    endloop
  endfacet
  facet normal 0 0 -1
    outer loop
      vertex -8.94586 40.95 0
      vertex -12.548 70.9877 0
      vertex 0 9 0
    endloop
  endfacet
  facet normal 0 0 -1
    outer loop
      vertex -12.6541 59.05 0
      vertex -12.548 70.9877 0
      vertex -11.0459 51.2 0
    endloop
  endfacet
  facet normal 0 0 -1
    outer loop
      vertex -13.1459 61.45 0
      vertex -12.548 70.9877 0
      vertex -12.6541 59.05 0
    endloop
  endfacet
  facet normal 0 0 -1
    outer loop
      vertex -15 70.5 0
      vertex -12.548 70.9877 0
      vertex -13.1459 61.45 0
    endloop
  endfacet
  facet normal -0 0 -1
    outer loop
      vertex -12.548 70.9877 0
      vertex -15 70.5 0
      vertex -12.6903 71.4567 0
    endloop
  endfacet
  facet normal 0 0 -1
    outer loop
      vertex -12.6541 59.05 0
      vertex -16.8541 61.45 0
      vertex -13.1459 61.45 0
    endloop
  endfacet
  facet normal 0 0 -1
    outer loop
      vertex -15 70.5 0
      vertex -17.3097 71.4567 0
      vertex -17.0787 71.8889 0
    endloop
  endfacet
  facet normal 0 0 -1
    outer loop
      vertex -17.3459 59.05 0
      vertex -16.8541 61.45 0
      vertex -12.6541 59.05 0
    endloop
  endfacet
  facet normal 0 0 -1
    outer loop
      vertex -17.452 70.9877 0
      vertex -16.8541 61.45 0
      vertex -17.3459 59.05 0
    endloop
  endfacet
  facet normal 0 0 -1
    outer loop
      vertex -15 70.5 0
      vertex -17.452 70.9877 0
      vertex -17.3097 71.4567 0
    endloop
  endfacet
  facet normal 0 0 -1
    outer loop
      vertex -18.9541 51.2 0
      vertex -17.452 70.9877 0
      vertex -17.3459 59.05 0
    endloop
  endfacet
  facet normal 0 0 -1
    outer loop
      vertex -19.4458 48.8 0
      vertex -17.452 70.9877 0
      vertex -18.9541 51.2 0
    endloop
  endfacet
  facet normal 0 0 -1
    outer loop
      vertex -21.0541 40.95 0
      vertex -17.452 70.9877 0
      vertex -19.4458 48.8 0
    endloop
  endfacet
  facet normal 0 0 -1
    outer loop
      vertex -21.5459 38.55 0
      vertex -17.452 70.9877 0
      vertex -21.0541 40.95 0
    endloop
  endfacet
  facet normal 0 0 -1
    outer loop
      vertex -30 9 0
      vertex -21.5459 38.55 0
      vertex -23.1541 30.7 0
    endloop
  endfacet
  facet normal 0 0 -1
    outer loop
      vertex -30 9 0
      vertex -23.1541 30.7 0
      vertex -23.6458 28.3 0
    endloop
  endfacet
  facet normal 0 0 -1
    outer loop
      vertex -30 9 0
      vertex -23.6458 28.3 0
      vertex -25.2541 20.45 0
    endloop
  endfacet
  facet normal 0 0 -1
    outer loop
      vertex -30 9 0
      vertex -25.2541 20.45 0
      vertex -25.7458 18.05 0
    endloop
  endfacet
  facet normal 0 0 -1
    outer loop
      vertex -30 9 0
      vertex -25.7458 18.05 0
      vertex -27.6 9 0
    endloop
  endfacet
  facet normal 0 0 -1
    outer loop
      vertex -24.45 4.5 0
      vertex -30 9 0
      vertex -27.6 9 0
    endloop
  endfacet
  facet normal -0 0 -1
    outer loop
      vertex -21.5459 38.55 0
      vertex -30 9 0
      vertex -17.452 70.9877 0
    endloop
  endfacet
  facet normal 0 0 -1
    outer loop
      vertex -5.58748 4.88042 0
      vertex -2.40001 9 0
      vertex -5.55 4.5 0
    endloop
  endfacet
  facet normal 0 0 -1
    outer loop
      vertex -5.69844 5.24623 0
      vertex -2.40001 9 0
      vertex -5.58748 4.88042 0
    endloop
  endfacet
  facet normal 0 0 -1
    outer loop
      vertex -5.87865 5.58336 0
      vertex -2.40001 9 0
      vertex -5.69844 5.24623 0
    endloop
  endfacet
  facet normal 0 0 -1
    outer loop
      vertex -6.12115 5.87885 0
      vertex -2.40001 9 0
      vertex -5.87865 5.58336 0
    endloop
  endfacet
  facet normal 0 0 -1
    outer loop
      vertex -6.41664 6.12135 0
      vertex -2.40001 9 0
      vertex -6.12115 5.87885 0
    endloop
  endfacet
  facet normal 0 0 -1
    outer loop
      vertex -6.75377 6.30156 0
      vertex -2.40001 9 0
      vertex -6.41664 6.12135 0
    endloop
  endfacet
  facet normal 0 0 -1
    outer loop
      vertex -7.11958 6.41252 0
      vertex -2.40001 9 0
      vertex -6.75377 6.30156 0
    endloop
  endfacet
  facet normal 0 0 -1
    outer loop
      vertex -7.5 6.45 0
      vertex -2.40001 9 0
      vertex -7.11958 6.41252 0
    endloop
  endfacet
  facet normal 0 0 -1
    outer loop
      vertex -7.88043 6.41252 0
      vertex -2.40001 9 0
      vertex -7.5 6.45 0
    endloop
  endfacet
  facet normal 0 0 -1
    outer loop
      vertex -8.24625 6.30156 0
      vertex -2.40001 9 0
      vertex -7.88043 6.41252 0
    endloop
  endfacet
  facet normal 0 0 -1
    outer loop
      vertex -20.55 4.5 0
      vertex -9.41254 4.88042 0
      vertex -9.45001 4.5 0
    endloop
  endfacet
  facet normal 0 0 -1
    outer loop
      vertex -20.5875 4.88042 0
      vertex -9.41254 4.88042 0
      vertex -20.55 4.5 0
    endloop
  endfacet
  facet normal 0 0 -1
    outer loop
      vertex -9.41254 4.88042 0
      vertex -20.5875 4.88042 0
      vertex -9.30157 5.24623 0
    endloop
  endfacet
  facet normal 0 0 -1
    outer loop
      vertex -20.6984 5.24623 0
      vertex -9.30157 5.24623 0
      vertex -20.5875 4.88042 0
    endloop
  endfacet
  facet normal 0 0 -1
    outer loop
      vertex -9.30157 5.24623 0
      vertex -20.6984 5.24623 0
      vertex -9.12137 5.58336 0
    endloop
  endfacet
  facet normal 0 0 -1
    outer loop
      vertex -20.8786 5.58336 0
      vertex -9.12137 5.58336 0
      vertex -20.6984 5.24623 0
    endloop
  endfacet
  facet normal 0 0 -1
    outer loop
      vertex -9.12137 5.58336 0
      vertex -20.8786 5.58336 0
      vertex -8.87886 5.87885 0
    endloop
  endfacet
  facet normal 0 0 -1
    outer loop
      vertex -21.1211 5.87885 0
      vertex -8.87886 5.87885 0
      vertex -20.8786 5.58336 0
    endloop
  endfacet
  facet normal 0 0 -1
    outer loop
      vertex -8.87886 5.87885 0
      vertex -21.1211 5.87885 0
      vertex -8.58337 6.12135 0
    endloop
  endfacet
  facet normal 0 0 -1
    outer loop
      vertex -21.4166 6.12135 0
      vertex -8.58337 6.12135 0
      vertex -21.1211 5.87885 0
    endloop
  endfacet
  facet normal 0 0 -1
    outer loop
      vertex -8.58337 6.12135 0
      vertex -21.4166 6.12135 0
      vertex -8.24625 6.30156 0
    endloop
  endfacet
  facet normal 0 0 -1
    outer loop
      vertex -21.7538 6.30156 0
      vertex -8.24625 6.30156 0
      vertex -21.4166 6.12135 0
    endloop
  endfacet
  facet normal 0 0 -1
    outer loop
      vertex -8.24625 6.30156 0
      vertex -21.7538 6.30156 0
      vertex -2.40001 9 0
    endloop
  endfacet
  facet normal 0 0 -1
    outer loop
      vertex -22.1196 6.41252 0
      vertex -2.40001 9 0
      vertex -21.7538 6.30156 0
    endloop
  endfacet
  facet normal 0 0 -1
    outer loop
      vertex -27.6 9 0
      vertex -22.1196 6.41252 0
      vertex -22.5 6.45 0
    endloop
  endfacet
  facet normal 0 0 -1
    outer loop
      vertex -27.6 9 0
      vertex -22.5 6.45 0
      vertex -22.8804 6.41252 0
    endloop
  endfacet
  facet normal 0 0 -1
    outer loop
      vertex -22.1196 6.41252 0
      vertex -27.6 9 0
      vertex -2.40001 9 0
    endloop
  endfacet
  facet normal 0 0 -1
    outer loop
      vertex -23.2462 6.30156 0
      vertex -27.6 9 0
      vertex -22.8804 6.41252 0
    endloop
  endfacet
  facet normal 0 0 -1
    outer loop
      vertex -23.5834 6.12135 0
      vertex -27.6 9 0
      vertex -23.2462 6.30156 0
    endloop
  endfacet
  facet normal 0 0 -1
    outer loop
      vertex -23.8788 5.87885 0
      vertex -27.6 9 0
      vertex -23.5834 6.12135 0
    endloop
  endfacet
  facet normal 0 0 -1
    outer loop
      vertex -24.1214 5.58336 0
      vertex -27.6 9 0
      vertex -23.8788 5.87885 0
    endloop
  endfacet
  facet normal 0 0 -1
    outer loop
      vertex -24.3016 5.24623 0
      vertex -27.6 9 0
      vertex -24.1214 5.58336 0
    endloop
  endfacet
  facet normal 0 0 -1
    outer loop
      vertex -24.4125 4.88042 0
      vertex -27.6 9 0
      vertex -24.3016 5.24623 0
    endloop
  endfacet
  facet normal 0 0 -1
    outer loop
      vertex -27.6 9 0
      vertex -24.4125 4.88042 0
      vertex -24.45 4.5 0
    endloop
  endfacet
  facet normal -0 0 -1
    outer loop
      vertex -12.6903 71.4567 0
      vertex -15 70.5 0
      vertex -12.9213 71.8889 0
    endloop
  endfacet
  facet normal -0 0 -1
    outer loop
      vertex -12.9213 71.8889 0
      vertex -15 70.5 0
      vertex -13.2322 72.2678 0
    endloop
  endfacet
  facet normal -0 0 -1
    outer loop
      vertex -13.2322 72.2678 0
      vertex -15 70.5 0
      vertex -13.6111 72.5787 0
    endloop
  endfacet
  facet normal -0 0 -1
    outer loop
      vertex -13.6111 72.5787 0
      vertex -15 70.5 0
      vertex -14.0433 72.8097 0
    endloop
  endfacet
  facet normal -0 0 -1
    outer loop
      vertex -14.0433 72.8097 0
      vertex -15 70.5 0
      vertex -14.5123 72.952 0
    endloop
  endfacet
  facet normal 0 0 -1
    outer loop
      vertex -15 70.5 0
      vertex -15 73 0
      vertex -14.5123 72.952 0
    endloop
  endfacet
  facet normal 0 0 -1
    outer loop
      vertex -15 70.5 0
      vertex -15.4877 72.952 0
      vertex -15 73 0
    endloop
  endfacet
  facet normal 0 0 -1
    outer loop
      vertex -15 70.5 0
      vertex -15.9567 72.8097 0
      vertex -15.4877 72.952 0
    endloop
  endfacet
  facet normal 0 0 -1
    outer loop
      vertex -15 70.5 0
      vertex -16.3889 72.5787 0
      vertex -15.9567 72.8097 0
    endloop
  endfacet
  facet normal 0 0 -1
    outer loop
      vertex -15 70.5 0
      vertex -16.7678 72.2678 0
      vertex -16.3889 72.5787 0
    endloop
  endfacet
  facet normal 0 0 -1
    outer loop
      vertex -17.452 70.9877 0
      vertex -15 70.5 0
      vertex -16.8541 61.45 0
    endloop
  endfacet
  facet normal 0 0 -1
    outer loop
      vertex -15 70.5 0
      vertex -17.0787 71.8889 0
      vertex -16.7678 72.2678 0
    endloop
  endfacet
  facet normal 0.980123 0.198391 0
    outer loop
      vertex -11.9075 67.8234 29.8729
      vertex -12.548 70.9877 0
      vertex -12.548 70.9877 29.9506
    endloop
  endfacet
  facet normal 0.98012 0.198408 1.82262e-06
    outer loop
      vertex -10.8621 62.6592 29.492
      vertex -12.548 70.9877 0
      vertex -11.9075 67.8234 29.8729
    endloop
  endfacet
  facet normal 0.980121 0.198399 -7.75079e-07
    outer loop
      vertex -9.82179 57.5199 28.8581
      vertex -12.548 70.9877 0
      vertex -10.8621 62.6592 29.492
    endloop
  endfacet
  facet normal 0.98012 0.198406 2.60918e-06
    outer loop
      vertex -8.78901 52.418 27.9728
      vertex -12.548 70.9877 0
      vertex -9.82179 57.5199 28.8581
    endloop
  endfacet
  facet normal 0.980121 0.198402 3.25317e-07
    outer loop
      vertex -7.76627 47.3656 26.8383
      vertex -12.548 70.9877 0
      vertex -8.78901 52.418 27.9728
    endloop
  endfacet
  facet normal 0.98012 0.198404 1.69803e-06
    outer loop
      vertex -6.75603 42.375 25.4572
      vertex -12.548 70.9877 0
      vertex -7.76627 47.3656 26.8383
    endloop
  endfacet
  facet normal 0.980122 0.198398 -0
    outer loop
      vertex -6.4777 41 24.997
      vertex -6.75603 42.375 25.4572
      vertex -6.4777 41 25.003
    endloop
  endfacet
  facet normal 0.980121 0.198399 -3.78364e-06
    outer loop
      vertex -6.75603 42.375 25.4572
      vertex -6.4777 41 24.997
      vertex -12.548 70.9877 0
    endloop
  endfacet
  facet normal 0.98012 0.198404 2.32653e-06
    outer loop
      vertex -6.19936 39.625 24.5428
      vertex -12.548 70.9877 0
      vertex -6.4777 41 24.997
    endloop
  endfacet
  facet normal 0.98012 0.198404 1.95827e-06
    outer loop
      vertex -5.18912 34.6344 23.1617
      vertex -12.548 70.9877 0
      vertex -6.19936 39.625 24.5428
    endloop
  endfacet
  facet normal 0.980121 0.198402 2.04664e-06
    outer loop
      vertex 0 9 0
      vertex -5.18912 34.6344 23.1617
      vertex -4.16638 29.582 22.0272
    endloop
  endfacet
  facet normal 0.98012 0.198407 -2.32997e-06
    outer loop
      vertex 0 9 0
      vertex -4.16638 29.582 22.0272
      vertex -3.1336 24.4801 21.1419
    endloop
  endfacet
  facet normal 0.980121 0.198402 9.7224e-07
    outer loop
      vertex 0 9 0
      vertex -3.1336 24.4801 21.1419
      vertex -2.09327 19.3408 20.508
    endloop
  endfacet
  facet normal 0.980121 0.198402 9.88477e-07
    outer loop
      vertex 0 9 0
      vertex -2.09327 19.3408 20.508
      vertex -1.0479 14.1766 20.1271
    endloop
  endfacet
  facet normal 0.98012 0.198406 -0
    outer loop
      vertex 0 9 0
      vertex -1.0479 14.1766 20.1271
      vertex 0 9 20
    endloop
  endfacet
  facet normal 0.980121 0.198403 7.93675e-07
    outer loop
      vertex -5.18912 34.6344 23.1617
      vertex 0 9 0
      vertex -12.548 70.9877 0
    endloop
  endfacet
  facet normal 0.956923 0.290341 0
    outer loop
      vertex -12.548 70.9877 29.9506
      vertex -12.6903 71.4567 0
      vertex -12.6903 71.4567 29.9621
    endloop
  endfacet
  facet normal 0.956923 0.290341 0
    outer loop
      vertex -12.6903 71.4567 0
      vertex -12.548 70.9877 29.9506
      vertex -12.548 70.9877 0
    endloop
  endfacet
  facet normal 0.881935 0.471372 0
    outer loop
      vertex -12.6903 71.4567 29.9621
      vertex -12.9213 71.8889 0
      vertex -12.9213 71.8889 29.9727
    endloop
  endfacet
  facet normal 0.881935 0.471372 0
    outer loop
      vertex -12.9213 71.8889 0
      vertex -12.6903 71.4567 29.9621
      vertex -12.6903 71.4567 0
    endloop
  endfacet
  facet normal 0.773066 0.634326 0
    outer loop
      vertex -12.9213 71.8889 29.9727
      vertex -13.2322 72.2678 0
      vertex -13.2322 72.2678 29.982
    endloop
  endfacet
  facet normal 0.773066 0.634326 0
    outer loop
      vertex -13.2322 72.2678 0
      vertex -12.9213 71.8889 29.9727
      vertex -12.9213 71.8889 0
    endloop
  endfacet
  facet normal 0.634326 0.773066 0
    outer loop
      vertex -13.6111 72.5787 0
      vertex -13.2322 72.2678 29.982
      vertex -13.2322 72.2678 0
    endloop
  endfacet
  facet normal 0.634326 0.773066 0
    outer loop
      vertex -13.2322 72.2678 29.982
      vertex -13.6111 72.5787 0
      vertex -13.6111 72.5787 29.9897
    endloop
  endfacet
  facet normal 0.471372 0.881935 0
    outer loop
      vertex -14.0433 72.8097 0
      vertex -13.6111 72.5787 29.9897
      vertex -13.6111 72.5787 0
    endloop
  endfacet
  facet normal 0.471372 0.881935 0
    outer loop
      vertex -13.6111 72.5787 29.9897
      vertex -14.0433 72.8097 0
      vertex -14.0433 72.8097 29.9953
    endloop
  endfacet
  facet normal 0.290341 0.956923 -0
    outer loop
      vertex -14.0433 72.8097 0
      vertex -14.5123 72.952 29.9988
      vertex -14.0433 72.8097 29.9953
    endloop
  endfacet
  facet normal 0.290341 0.956923 0
    outer loop
      vertex -14.5123 72.952 29.9988
      vertex -14.0433 72.8097 0
      vertex -14.5123 72.952 0
    endloop
  endfacet
  facet normal 0.0979479 0.995192 -0
    outer loop
      vertex -14.5123 72.952 0
      vertex -15 73 30
      vertex -14.5123 72.952 29.9988
    endloop
  endfacet
  facet normal 0.0979479 0.995192 0
    outer loop
      vertex -15 73 30
      vertex -14.5123 72.952 0
      vertex -15 73 0
    endloop
  endfacet
  facet normal -0.0979479 0.995192 0
    outer loop
      vertex -15 73 0
      vertex -15.4877 72.952 29.9988
      vertex -15 73 30
    endloop
  endfacet
  facet normal -0.0979479 0.995192 0
    outer loop
      vertex -15.4877 72.952 29.9988
      vertex -15 73 0
      vertex -15.4877 72.952 0
    endloop
  endfacet
  facet normal -0.290341 0.956923 0
    outer loop
      vertex -15.4877 72.952 0
      vertex -15.9567 72.8097 29.9953
      vertex -15.4877 72.952 29.9988
    endloop
  endfacet
  facet normal -0.290341 0.956923 0
    outer loop
      vertex -15.9567 72.8097 29.9953
      vertex -15.4877 72.952 0
      vertex -15.9567 72.8097 0
    endloop
  endfacet
  facet normal -0.471372 0.881935 0
    outer loop
      vertex -15.9567 72.8097 0
      vertex -16.3889 72.5787 29.9897
      vertex -15.9567 72.8097 29.9953
    endloop
  endfacet
  facet normal -0.471372 0.881935 0
    outer loop
      vertex -16.3889 72.5787 29.9897
      vertex -15.9567 72.8097 0
      vertex -16.3889 72.5787 0
    endloop
  endfacet
  facet normal -0.634326 0.773066 0
    outer loop
      vertex -16.3889 72.5787 0
      vertex -16.7678 72.2678 29.982
      vertex -16.3889 72.5787 29.9897
    endloop
  endfacet
  facet normal -0.634326 0.773066 0
    outer loop
      vertex -16.7678 72.2678 29.982
      vertex -16.3889 72.5787 0
      vertex -16.7678 72.2678 0
    endloop
  endfacet
  facet normal -0.773066 0.634326 0
    outer loop
      vertex -17.0787 71.8889 29.9727
      vertex -16.7678 72.2678 0
      vertex -17.0787 71.8889 0
    endloop
  endfacet
  facet normal -0.773066 0.634326 0
    outer loop
      vertex -16.7678 72.2678 0
      vertex -17.0787 71.8889 29.9727
      vertex -16.7678 72.2678 29.982
    endloop
  endfacet
  facet normal -0.881935 0.471372 0
    outer loop
      vertex -17.3097 71.4567 29.9621
      vertex -17.0787 71.8889 0
      vertex -17.3097 71.4567 0
    endloop
  endfacet
  facet normal -0.881935 0.471372 0
    outer loop
      vertex -17.0787 71.8889 0
      vertex -17.3097 71.4567 29.9621
      vertex -17.0787 71.8889 29.9727
    endloop
  endfacet
  facet normal -0.956923 0.290341 0
    outer loop
      vertex -17.452 70.9877 29.9506
      vertex -17.3097 71.4567 0
      vertex -17.452 70.9877 0
    endloop
  endfacet
  facet normal -0.956923 0.290341 0
    outer loop
      vertex -17.3097 71.4567 0
      vertex -17.452 70.9877 29.9506
      vertex -17.3097 71.4567 29.9621
    endloop
  endfacet
  facet normal -0.980123 0.198391 0
    outer loop
      vertex -17.452 70.9877 0
      vertex -18.0925 67.8234 29.8729
      vertex -17.452 70.9877 29.9506
    endloop
  endfacet
  facet normal -0.98012 0.198408 1.82262e-06
    outer loop
      vertex -17.452 70.9877 0
      vertex -19.1379 62.6592 29.492
      vertex -18.0925 67.8234 29.8729
    endloop
  endfacet
  facet normal -0.980122 0.198397 -1.29552e-06
    outer loop
      vertex -17.452 70.9877 0
      vertex -20.1782 57.5199 28.8581
      vertex -19.1379 62.6592 29.492
    endloop
  endfacet
  facet normal -0.980119 0.198409 4.58215e-06
    outer loop
      vertex -17.452 70.9877 0
      vertex -21.211 52.418 27.9728
      vertex -20.1782 57.5199 28.8581
    endloop
  endfacet
  facet normal -0.980122 0.198396 -4.46259e-06
    outer loop
      vertex -17.452 70.9877 0
      vertex -22.2337 47.3656 26.8383
      vertex -21.211 52.418 27.9728
    endloop
  endfacet
  facet normal -0.980119 0.198413 1.09191e-05
    outer loop
      vertex -17.452 70.9877 0
      vertex -23.244 42.375 25.4572
      vertex -22.2337 47.3656 26.8383
    endloop
  endfacet
  facet normal -0.980124 0.198385 -2.20882e-05
    outer loop
      vertex -17.452 70.9877 0
      vertex -23.5223 41 24.997
      vertex -23.244 42.375 25.4572
    endloop
  endfacet
  facet normal -0.980124 0.198384 -2.2171e-05
    outer loop
      vertex -17.452 70.9877 0
      vertex -23.8006 39.625 24.5428
      vertex -23.5223 41 24.997
    endloop
  endfacet
  facet normal -0.980119 0.198412 1.42624e-05
    outer loop
      vertex -17.452 70.9877 0
      vertex -24.8109 34.6344 23.1617
      vertex -23.8006 39.625 24.5428
    endloop
  endfacet
  facet normal -0.980121 0.198403 -5.26535e-08
    outer loop
      vertex -30 9 0
      vertex -24.8109 34.6344 23.1617
      vertex -17.452 70.9877 0
    endloop
  endfacet
  facet normal -0.980123 0.198392 1.23486e-05
    outer loop
      vertex -24.8109 34.6344 23.1617
      vertex -30 9 0
      vertex -25.8336 29.582 22.0272
    endloop
  endfacet
  facet normal -0.980119 0.198411 -5.55266e-06
    outer loop
      vertex -25.8336 29.582 22.0272
      vertex -30 9 0
      vertex -26.8664 24.4801 21.1419
    endloop
  endfacet
  facet normal -0.980122 0.198396 5.5773e-06
    outer loop
      vertex -26.8664 24.4801 21.1419
      vertex -30 9 0
      vertex -27.9067 19.3408 20.508
    endloop
  endfacet
  facet normal -0.98012 0.198408 -5.04244e-07
    outer loop
      vertex -27.9067 19.3408 20.508
      vertex -30 9 0
      vertex -28.9521 14.1766 20.1271
    endloop
  endfacet
  facet normal -0.98012 0.198406 0
    outer loop
      vertex -28.9521 14.1766 20.1271
      vertex -30 9 0
      vertex -30 9 20
    endloop
  endfacet
  facet normal -0.980126 0.198377 0
    outer loop
      vertex -23.244 42.375 25.4572
      vertex -23.5223 41 24.997
      vertex -23.5223 41 25.003
    endloop
  endfacet
  facet normal -1 0 0
    outer loop
      vertex -30 0 0
      vertex -30 9 20
      vertex -30 9 0
    endloop
  endfacet
  facet normal -1 -0 0
    outer loop
      vertex -30 9 20
      vertex -30 0 0
      vertex -30 0 20
    endloop
  endfacet
  facet normal 0 -1 0
    outer loop
      vertex -30 0 0
      vertex 0 0 20
      vertex -30 0 20
    endloop
  endfacet
  facet normal 0 -1 -0
    outer loop
      vertex 0 0 20
      vertex -30 0 0
      vertex 0 0 0
    endloop
  endfacet
  facet normal 1 -0 0
    outer loop
      vertex 0 0 20
      vertex 0 9 0
      vertex 0 9 20
    endloop
  endfacet
  facet normal 1 0 0
    outer loop
      vertex 0 9 0
      vertex 0 0 20
      vertex 0 0 0
    endloop
  endfacet
  facet normal 0.979649 -0.200717 0
    outer loop
      vertex -15.5484 67.8234 29.8729
      vertex -15 70.5 0
      vertex -15 70.5 29.9386
    endloop
  endfacet
  facet normal 0.979652 -0.200703 1.28998e-06
    outer loop
      vertex -16.6064 62.6592 29.492
      vertex -15 70.5 0
      vertex -15.5484 67.8234 29.8729
    endloop
  endfacet
  facet normal 0.979657 -0.200679 0
    outer loop
      vertex -16.8541 61.45 0
      vertex -16.6064 62.6592 29.492
      vertex -16.8541 61.45 29.3428
    endloop
  endfacet
  facet normal 0.979652 -0.200704 1.07441e-06
    outer loop
      vertex -16.6064 62.6592 29.492
      vertex -16.8541 61.45 0
      vertex -15 70.5 0
    endloop
  endfacet
  facet normal -0.979649 -0.200717 0
    outer loop
      vertex -15 70.5 0
      vertex -14.4516 67.8234 29.8729
      vertex -15 70.5 29.9386
    endloop
  endfacet
  facet normal -0.979652 -0.200703 1.28998e-06
    outer loop
      vertex -15 70.5 0
      vertex -13.3936 62.6592 29.492
      vertex -14.4516 67.8234 29.8729
    endloop
  endfacet
  facet normal -0.979652 -0.200704 1.07441e-06
    outer loop
      vertex -13.1459 61.45 0
      vertex -13.3936 62.6592 29.492
      vertex -15 70.5 0
    endloop
  endfacet
  facet normal -0.979657 -0.200679 0
    outer loop
      vertex -13.3936 62.6592 29.492
      vertex -13.1459 61.45 0
      vertex -13.1459 61.45 29.3428
    endloop
  endfacet
  facet normal 0 1 -0
    outer loop
      vertex -13.1459 61.45 0
      vertex -16.8541 61.45 29.3428
      vertex -13.1459 61.45 29.3428
    endloop
  endfacet
  facet normal 0 1 0
    outer loop
      vertex -16.8541 61.45 29.3428
      vertex -13.1459 61.45 0
      vertex -16.8541 61.45 0
    endloop
  endfacet
  facet normal 0.979661 -0.200657 0
    outer loop
      vertex -17.6593 57.5199 28.8581
      vertex -17.3459 59.05 0
      vertex -17.3459 59.05 29.0468
    endloop
  endfacet
  facet normal 0.97965 -0.200714 -3.15199e-06
    outer loop
      vertex -18.7046 52.418 27.9728
      vertex -17.3459 59.05 0
      vertex -17.6593 57.5199 28.8581
    endloop
  endfacet
  facet normal 0.979657 -0.200677 0
    outer loop
      vertex -18.9541 51.2 0
      vertex -18.7046 52.418 27.9728
      vertex -18.9541 51.2 27.6993
    endloop
  endfacet
  facet normal 0.979653 -0.200698 9.48484e-07
    outer loop
      vertex -18.7046 52.418 27.9728
      vertex -18.9541 51.2 0
      vertex -17.3459 59.05 0
    endloop
  endfacet
  facet normal 0 -1 0
    outer loop
      vertex -17.3459 59.05 0
      vertex -12.6541 59.05 29.0468
      vertex -17.3459 59.05 29.0468
    endloop
  endfacet
  facet normal 0 -1 -0
    outer loop
      vertex -12.6541 59.05 29.0468
      vertex -17.3459 59.05 0
      vertex -12.6541 59.05 0
    endloop
  endfacet
  facet normal -0.979661 -0.200657 0
    outer loop
      vertex -12.6541 59.05 0
      vertex -12.3407 57.5199 28.8581
      vertex -12.6541 59.05 29.0468
    endloop
  endfacet
  facet normal -0.97965 -0.200714 -3.15199e-06
    outer loop
      vertex -12.6541 59.05 0
      vertex -11.2954 52.418 27.9728
      vertex -12.3407 57.5199 28.8581
    endloop
  endfacet
  facet normal -0.979653 -0.200698 9.48484e-07
    outer loop
      vertex -11.0459 51.2 0
      vertex -11.2954 52.418 27.9728
      vertex -12.6541 59.05 0
    endloop
  endfacet
  facet normal -0.979657 -0.200677 0
    outer loop
      vertex -11.2954 52.418 27.9728
      vertex -11.0459 51.2 0
      vertex -11.0459 51.2 27.6993
    endloop
  endfacet
  facet normal 0 1 -0
    outer loop
      vertex -11.0459 51.2 0
      vertex -18.9541 51.2 27.6993
      vertex -11.0459 51.2 27.6993
    endloop
  endfacet
  facet normal 0 1 0
    outer loop
      vertex -18.9541 51.2 27.6993
      vertex -11.0459 51.2 0
      vertex -18.9541 51.2 0
    endloop
  endfacet
  facet normal 0.979648 -0.200724 0
    outer loop
      vertex -19.7397 47.3656 26.8383
      vertex -19.4458 48.8 0
      vertex -19.4458 48.8 27.1604
    endloop
  endfacet
  facet normal 0.97965 -0.200716 4.56525e-07
    outer loop
      vertex -20.7622 42.375 25.4572
      vertex -19.4458 48.8 0
      vertex -19.7397 47.3656 26.8383
    endloop
  endfacet
  facet normal 0.979652 -0.200704 0
    outer loop
      vertex -21.0439 41 24.997
      vertex -20.7622 42.375 25.4572
      vertex -21.0439 41 25.003
    endloop
  endfacet
  facet normal 0.979652 -0.200705 3.29042e-06
    outer loop
      vertex -20.7622 42.375 25.4572
      vertex -21.0439 41 24.997
      vertex -19.4458 48.8 0
    endloop
  endfacet
  facet normal 0.979804 -0.199961 0.000245209
    outer loop
      vertex -21.0541 40.95 24.9805
      vertex -19.4458 48.8 0
      vertex -21.0439 41 24.997
    endloop
  endfacet
  facet normal 0.979651 -0.20071 0
    outer loop
      vertex -19.4458 48.8 0
      vertex -21.0541 40.95 24.9805
      vertex -21.0541 40.95 0
    endloop
  endfacet
  facet normal 0 -1 0
    outer loop
      vertex -19.4458 48.8 0
      vertex -10.5542 48.8 27.1604
      vertex -19.4458 48.8 27.1604
    endloop
  endfacet
  facet normal 0 -1 -0
    outer loop
      vertex -10.5542 48.8 27.1604
      vertex -19.4458 48.8 0
      vertex -10.5542 48.8 0
    endloop
  endfacet
  facet normal -0.979648 -0.200724 0
    outer loop
      vertex -10.5542 48.8 0
      vertex -10.2603 47.3656 26.8383
      vertex -10.5542 48.8 27.1604
    endloop
  endfacet
  facet normal -0.97965 -0.200714 5.5991e-07
    outer loop
      vertex -10.5542 48.8 0
      vertex -9.23781 42.375 25.4572
      vertex -10.2603 47.3656 26.8383
    endloop
  endfacet
  facet normal -0.979652 -0.200705 2.93557e-06
    outer loop
      vertex -10.5542 48.8 0
      vertex -8.95611 41 24.997
      vertex -9.23781 42.375 25.4572
    endloop
  endfacet
  facet normal -0.97965 -0.200715 -0
    outer loop
      vertex -8.94586 40.95 24.9805
      vertex -10.5542 48.8 0
      vertex -8.94586 40.95 0
    endloop
  endfacet
  facet normal -0.97963 -0.200813 -3.23334e-05
    outer loop
      vertex -10.5542 48.8 0
      vertex -8.94586 40.95 24.9805
      vertex -8.95611 41 24.997
    endloop
  endfacet
  facet normal -0.979652 -0.200704 0
    outer loop
      vertex -9.23781 42.375 25.4572
      vertex -8.95611 41 24.997
      vertex -8.95611 41 25.003
    endloop
  endfacet
  facet normal 0 1 -0
    outer loop
      vertex -8.94586 40.95 0
      vertex -21.0541 40.95 24.9805
      vertex -8.94586 40.95 24.9805
    endloop
  endfacet
  facet normal 0 1 0
    outer loop
      vertex -21.0541 40.95 24.9805
      vertex -8.94586 40.95 0
      vertex -21.0541 40.95 0
    endloop
  endfacet
  facet normal 0.979652 -0.200704 0
    outer loop
      vertex -22.3481 34.6344 23.1617
      vertex -21.5459 38.55 0
      vertex -21.5459 38.55 24.2453
    endloop
  endfacet
  facet normal 0.979654 -0.200692 2.09298e-06
    outer loop
      vertex -23.1541 30.7 22.2782
      vertex -21.5459 38.55 0
      vertex -22.3481 34.6344 23.1617
    endloop
  endfacet
  facet normal 0.979653 -0.200698 0
    outer loop
      vertex -21.5459 38.55 0
      vertex -23.1541 30.7 22.2782
      vertex -23.1541 30.7 0
    endloop
  endfacet
  facet normal 0 -1 0
    outer loop
      vertex -21.5459 38.55 0
      vertex -8.45415 38.55 24.2453
      vertex -21.5459 38.55 24.2453
    endloop
  endfacet
  facet normal 0 -1 -0
    outer loop
      vertex -8.45415 38.55 24.2453
      vertex -21.5459 38.55 0
      vertex -8.45415 38.55 0
    endloop
  endfacet
  facet normal -0.979651 -0.200709 0
    outer loop
      vertex -8.45415 38.55 0
      vertex -7.65193 34.6344 23.1617
      vertex -8.45415 38.55 24.2453
    endloop
  endfacet
  facet normal -0.979651 -0.200709 -0
    outer loop
      vertex -6.84586 30.7 22.2782
      vertex -8.45415 38.55 0
      vertex -6.84586 30.7 0
    endloop
  endfacet
  facet normal -0.979651 -0.200708 6.91444e-08
    outer loop
      vertex -8.45415 38.55 0
      vertex -6.84586 30.7 22.2782
      vertex -7.65193 34.6344 23.1617
    endloop
  endfacet
  facet normal 0 1 -0
    outer loop
      vertex -6.84586 30.7 0
      vertex -23.1541 30.7 22.2782
      vertex -6.84586 30.7 22.2782
    endloop
  endfacet
  facet normal 0 1 0
    outer loop
      vertex -23.1541 30.7 22.2782
      vertex -6.84586 30.7 0
      vertex -23.1541 30.7 0
    endloop
  endfacet
  facet normal 0.979647 -0.20073 0
    outer loop
      vertex -24.4285 24.4801 21.1419
      vertex -23.6458 28.3 0
      vertex -23.6458 28.3 21.8047
    endloop
  endfacet
  facet normal 0.979655 -0.200691 0
    outer loop
      vertex -25.2541 20.45 0
      vertex -24.4285 24.4801 21.1419
      vertex -25.2541 20.45 20.6448
    endloop
  endfacet
  facet normal 0.979651 -0.20071 3.83581e-06
    outer loop
      vertex -24.4285 24.4801 21.1419
      vertex -25.2541 20.45 0
      vertex -23.6458 28.3 0
    endloop
  endfacet
  facet normal 0 -1 0
    outer loop
      vertex -23.6458 28.3 0
      vertex -6.35416 28.3 21.8047
      vertex -23.6458 28.3 21.8047
    endloop
  endfacet
  facet normal 0 -1 -0
    outer loop
      vertex -6.35416 28.3 21.8047
      vertex -23.6458 28.3 0
      vertex -6.35416 28.3 0
    endloop
  endfacet
  facet normal -0.979651 -0.200711 0
    outer loop
      vertex -6.35416 28.3 0
      vertex -5.57154 24.4801 21.1419
      vertex -6.35416 28.3 21.8047
    endloop
  endfacet
  facet normal -0.979651 -0.20071 1.28858e-07
    outer loop
      vertex -4.74586 20.45 0
      vertex -5.57154 24.4801 21.1419
      vertex -6.35416 28.3 0
    endloop
  endfacet
  facet normal -0.979651 -0.200709 0
    outer loop
      vertex -5.57154 24.4801 21.1419
      vertex -4.74586 20.45 0
      vertex -4.74586 20.45 20.6448
    endloop
  endfacet
  facet normal 0 1 -0
    outer loop
      vertex -4.74586 20.45 0
      vertex -25.2541 20.45 20.6448
      vertex -4.74586 20.45 20.6448
    endloop
  endfacet
  facet normal 0 1 0
    outer loop
      vertex -25.2541 20.45 20.6448
      vertex -4.74586 20.45 0
      vertex -25.2541 20.45 0
    endloop
  endfacet
  facet normal 0.97965 -0.200715 0
    outer loop
      vertex -26.5394 14.1766 20.1271
      vertex -25.7458 18.05 0
      vertex -25.7458 18.05 20.4128
    endloop
  endfacet
  facet normal 0.97965 -0.200714 0
    outer loop
      vertex -27.6 9 0
      vertex -26.5394 14.1766 20.1271
      vertex -27.6 9 20
    endloop
  endfacet
  facet normal 0.97965 -0.200715 1.16816e-07
    outer loop
      vertex -26.5394 14.1766 20.1271
      vertex -27.6 9 0
      vertex -25.7458 18.05 0
    endloop
  endfacet
  facet normal 0 -1 0
    outer loop
      vertex -25.7458 18.05 0
      vertex -4.25415 18.05 20.4128
      vertex -25.7458 18.05 20.4128
    endloop
  endfacet
  facet normal 0 -1 -0
    outer loop
      vertex -4.25415 18.05 20.4128
      vertex -25.7458 18.05 0
      vertex -4.25415 18.05 0
    endloop
  endfacet
  facet normal -0.979652 -0.200705 0
    outer loop
      vertex -4.25415 18.05 0
      vertex -3.46059 14.1766 20.1271
      vertex -4.25415 18.05 20.4128
    endloop
  endfacet
  facet normal -0.979651 -0.200708 -5.80185e-07
    outer loop
      vertex -2.40001 9 0
      vertex -3.46059 14.1766 20.1271
      vertex -4.25415 18.05 0
    endloop
  endfacet
  facet normal -0.979651 -0.20071 0
    outer loop
      vertex -3.46059 14.1766 20.1271
      vertex -2.40001 9 0
      vertex -2.40001 9 20
    endloop
  endfacet
  facet normal 0 1 -0
    outer loop
      vertex -2.40001 9 0
      vertex -27.6 9 20
      vertex -2.40001 9 20
    endloop
  endfacet
  facet normal 0 1 0
    outer loop
      vertex -27.6 9 20
      vertex -2.40001 9 0
      vertex -27.6 9 0
    endloop
  endfacet
  facet normal 0.290299 0.956936 -0
    outer loop
      vertex -22.8804 2.58746 0
      vertex -23.2462 2.69843 20
      vertex -22.8804 2.58746 20
    endloop
  endfacet
  facet normal 0.290299 0.956936 0
    outer loop
      vertex -23.2462 2.69843 20
      vertex -22.8804 2.58746 0
      vertex -23.2462 2.69843 0
    endloop
  endfacet
  facet normal 0.471321 0.881962 -0
    outer loop
      vertex -23.2462 2.69843 0
      vertex -23.5834 2.87863 20
      vertex -23.2462 2.69843 20
    endloop
  endfacet
  facet normal 0.471321 0.881962 0
    outer loop
      vertex -23.5834 2.87863 20
      vertex -23.2462 2.69843 0
      vertex -23.5834 2.87863 0
    endloop
  endfacet
  facet normal 0.634521 0.772906 -0
    outer loop
      vertex -23.5834 2.87863 0
      vertex -23.8788 3.12114 20
      vertex -23.5834 2.87863 20
    endloop
  endfacet
  facet normal 0.634521 0.772906 0
    outer loop
      vertex -23.8788 3.12114 20
      vertex -23.5834 2.87863 0
      vertex -23.8788 3.12114 0
    endloop
  endfacet
  facet normal 0.772885 0.634546 0
    outer loop
      vertex -23.8788 3.12114 20
      vertex -24.1214 3.41663 0
      vertex -24.1214 3.41663 20
    endloop
  endfacet
  facet normal 0.772885 0.634546 0
    outer loop
      vertex -24.1214 3.41663 0
      vertex -23.8788 3.12114 20
      vertex -23.8788 3.12114 0
    endloop
  endfacet
  facet normal 0.881915 0.471408 0
    outer loop
      vertex -24.1214 3.41663 20
      vertex -24.3016 3.75375 0
      vertex -24.3016 3.75375 20
    endloop
  endfacet
  facet normal 0.881915 0.471408 0
    outer loop
      vertex -24.3016 3.75375 0
      vertex -24.1214 3.41663 20
      vertex -24.1214 3.41663 0
    endloop
  endfacet
  facet normal 0.956991 0.290116 0
    outer loop
      vertex -24.3016 3.75375 20
      vertex -24.4125 4.11957 0
      vertex -24.4125 4.11957 20
    endloop
  endfacet
  facet normal 0.956991 0.290116 0
    outer loop
      vertex -24.4125 4.11957 0
      vertex -24.3016 3.75375 20
      vertex -24.3016 3.75375 0
    endloop
  endfacet
  facet normal 0.995177 0.0980972 0
    outer loop
      vertex -24.4125 4.11957 20
      vertex -24.45 4.5 0
      vertex -24.45 4.5 20
    endloop
  endfacet
  facet normal 0.995177 0.0980972 0
    outer loop
      vertex -24.45 4.5 0
      vertex -24.4125 4.11957 20
      vertex -24.4125 4.11957 0
    endloop
  endfacet
  facet normal 0.995177 -0.0980998 0
    outer loop
      vertex -24.45 4.5 20
      vertex -24.4125 4.88042 0
      vertex -24.4125 4.88042 20
    endloop
  endfacet
  facet normal 0.995177 -0.0980998 0
    outer loop
      vertex -24.4125 4.88042 0
      vertex -24.45 4.5 20
      vertex -24.45 4.5 0
    endloop
  endfacet
  facet normal 0.956989 -0.290124 0
    outer loop
      vertex -24.4125 4.88042 20
      vertex -24.3016 5.24623 0
      vertex -24.3016 5.24623 20
    endloop
  endfacet
  facet normal 0.956989 -0.290124 0
    outer loop
      vertex -24.3016 5.24623 0
      vertex -24.4125 4.88042 20
      vertex -24.4125 4.88042 0
    endloop
  endfacet
  facet normal 0.881921 -0.471397 0
    outer loop
      vertex -24.3016 5.24623 20
      vertex -24.1214 5.58336 0
      vertex -24.1214 5.58336 20
    endloop
  endfacet
  facet normal 0.881921 -0.471397 0
    outer loop
      vertex -24.1214 5.58336 0
      vertex -24.3016 5.24623 20
      vertex -24.3016 5.24623 0
    endloop
  endfacet
  facet normal 0.772885 -0.634546 0
    outer loop
      vertex -24.1214 5.58336 20
      vertex -23.8788 5.87885 0
      vertex -23.8788 5.87885 20
    endloop
  endfacet
  facet normal 0.772885 -0.634546 0
    outer loop
      vertex -23.8788 5.87885 0
      vertex -24.1214 5.58336 20
      vertex -24.1214 5.58336 0
    endloop
  endfacet
  facet normal 0.634505 -0.772919 0
    outer loop
      vertex -23.8788 5.87885 0
      vertex -23.5834 6.12135 20
      vertex -23.8788 5.87885 20
    endloop
  endfacet
  facet normal 0.634505 -0.772919 0
    outer loop
      vertex -23.5834 6.12135 20
      vertex -23.8788 5.87885 0
      vertex -23.5834 6.12135 0
    endloop
  endfacet
  facet normal 0.471341 -0.881951 0
    outer loop
      vertex -23.5834 6.12135 0
      vertex -23.2462 6.30156 20
      vertex -23.5834 6.12135 20
    endloop
  endfacet
  facet normal 0.471341 -0.881951 0
    outer loop
      vertex -23.2462 6.30156 20
      vertex -23.5834 6.12135 0
      vertex -23.2462 6.30156 0
    endloop
  endfacet
  facet normal 0.290275 -0.956943 0
    outer loop
      vertex -23.2462 6.30156 0
      vertex -22.8804 6.41252 20
      vertex -23.2462 6.30156 20
    endloop
  endfacet
  facet normal 0.290275 -0.956943 0
    outer loop
      vertex -22.8804 6.41252 20
      vertex -23.2462 6.30156 0
      vertex -22.8804 6.41252 0
    endloop
  endfacet
  facet normal 0.0980531 -0.995181 0
    outer loop
      vertex -22.8804 6.41252 0
      vertex -22.5 6.45 20
      vertex -22.8804 6.41252 20
    endloop
  endfacet
  facet normal 0.0980531 -0.995181 0
    outer loop
      vertex -22.5 6.45 20
      vertex -22.8804 6.41252 0
      vertex -22.5 6.45 0
    endloop
  endfacet
  facet normal -0.0980531 -0.995181 0
    outer loop
      vertex -22.5 6.45 0
      vertex -22.1196 6.41252 20
      vertex -22.5 6.45 20
    endloop
  endfacet
  facet normal -0.0980531 -0.995181 -0
    outer loop
      vertex -22.1196 6.41252 20
      vertex -22.5 6.45 0
      vertex -22.1196 6.41252 0
    endloop
  endfacet
  facet normal -0.290275 -0.956943 0
    outer loop
      vertex -22.1196 6.41252 0
      vertex -21.7538 6.30156 20
      vertex -22.1196 6.41252 20
    endloop
  endfacet
  facet normal -0.290275 -0.956943 -0
    outer loop
      vertex -21.7538 6.30156 20
      vertex -22.1196 6.41252 0
      vertex -21.7538 6.30156 0
    endloop
  endfacet
  facet normal -0.471341 -0.881951 0
    outer loop
      vertex -21.7538 6.30156 0
      vertex -21.4166 6.12135 20
      vertex -21.7538 6.30156 20
    endloop
  endfacet
  facet normal -0.471341 -0.881951 -0
    outer loop
      vertex -21.4166 6.12135 20
      vertex -21.7538 6.30156 0
      vertex -21.4166 6.12135 0
    endloop
  endfacet
  facet normal -0.634377 -0.773024 0
    outer loop
      vertex -21.4166 6.12135 0
      vertex -21.1211 5.87885 20
      vertex -21.4166 6.12135 20
    endloop
  endfacet
  facet normal -0.634377 -0.773024 -0
    outer loop
      vertex -21.1211 5.87885 20
      vertex -21.4166 6.12135 0
      vertex -21.1211 5.87885 0
    endloop
  endfacet
  facet normal -0.773014 -0.63439 0
    outer loop
      vertex -20.8786 5.58336 0
      vertex -21.1211 5.87885 20
      vertex -21.1211 5.87885 0
    endloop
  endfacet
  facet normal -0.773014 -0.63439 0
    outer loop
      vertex -21.1211 5.87885 20
      vertex -20.8786 5.58336 0
      vertex -20.8786 5.58336 20
    endloop
  endfacet
  facet normal -0.881921 -0.471397 0
    outer loop
      vertex -20.6984 5.24623 0
      vertex -20.8786 5.58336 20
      vertex -20.8786 5.58336 0
    endloop
  endfacet
  facet normal -0.881921 -0.471397 0
    outer loop
      vertex -20.8786 5.58336 20
      vertex -20.6984 5.24623 0
      vertex -20.6984 5.24623 20
    endloop
  endfacet
  facet normal -0.956989 -0.290124 0
    outer loop
      vertex -20.5875 4.88042 0
      vertex -20.6984 5.24623 20
      vertex -20.6984 5.24623 0
    endloop
  endfacet
  facet normal -0.956989 -0.290124 0
    outer loop
      vertex -20.6984 5.24623 20
      vertex -20.5875 4.88042 0
      vertex -20.5875 4.88042 20
    endloop
  endfacet
  facet normal -0.995177 -0.0980998 0
    outer loop
      vertex -20.55 4.5 0
      vertex -20.5875 4.88042 20
      vertex -20.5875 4.88042 0
    endloop
  endfacet
  facet normal -0.995177 -0.0980998 0
    outer loop
      vertex -20.5875 4.88042 20
      vertex -20.55 4.5 0
      vertex -20.55 4.5 20
    endloop
  endfacet
  facet normal -0.995177 0.0980972 0
    outer loop
      vertex -20.5875 4.11957 0
      vertex -20.55 4.5 20
      vertex -20.55 4.5 0
    endloop
  endfacet
  facet normal -0.995177 0.0980972 0
    outer loop
      vertex -20.55 4.5 20
      vertex -20.5875 4.11957 0
      vertex -20.5875 4.11957 20
    endloop
  endfacet
  facet normal -0.956991 0.290116 0
    outer loop
      vertex -20.6984 3.75375 0
      vertex -20.5875 4.11957 20
      vertex -20.5875 4.11957 0
    endloop
  endfacet
  facet normal -0.956991 0.290116 0
    outer loop
      vertex -20.5875 4.11957 20
      vertex -20.6984 3.75375 0
      vertex -20.6984 3.75375 20
    endloop
  endfacet
  facet normal -0.881915 0.471408 0
    outer loop
      vertex -20.8786 3.41663 0
      vertex -20.6984 3.75375 20
      vertex -20.6984 3.75375 0
    endloop
  endfacet
  facet normal -0.881915 0.471408 0
    outer loop
      vertex -20.6984 3.75375 20
      vertex -20.8786 3.41663 0
      vertex -20.8786 3.41663 20
    endloop
  endfacet
  facet normal -0.773014 0.63439 0
    outer loop
      vertex -21.1211 3.12114 0
      vertex -20.8786 3.41663 20
      vertex -20.8786 3.41663 0
    endloop
  endfacet
  facet normal -0.773014 0.63439 0
    outer loop
      vertex -20.8786 3.41663 20
      vertex -21.1211 3.12114 0
      vertex -21.1211 3.12114 20
    endloop
  endfacet
  facet normal -0.634392 0.773011 0
    outer loop
      vertex -21.1211 3.12114 0
      vertex -21.4166 2.87863 20
      vertex -21.1211 3.12114 20
    endloop
  endfacet
  facet normal -0.634392 0.773011 0
    outer loop
      vertex -21.4166 2.87863 20
      vertex -21.1211 3.12114 0
      vertex -21.4166 2.87863 0
    endloop
  endfacet
  facet normal -0.471321 0.881962 0
    outer loop
      vertex -21.4166 2.87863 0
      vertex -21.7538 2.69843 20
      vertex -21.4166 2.87863 20
    endloop
  endfacet
  facet normal -0.471321 0.881962 0
    outer loop
      vertex -21.7538 2.69843 20
      vertex -21.4166 2.87863 0
      vertex -21.7538 2.69843 0
    endloop
  endfacet
  facet normal -0.290299 0.956936 0
    outer loop
      vertex -21.7538 2.69843 0
      vertex -22.1196 2.58746 20
      vertex -21.7538 2.69843 20
    endloop
  endfacet
  facet normal -0.290299 0.956936 0
    outer loop
      vertex -22.1196 2.58746 20
      vertex -21.7538 2.69843 0
      vertex -22.1196 2.58746 0
    endloop
  endfacet
  facet normal -0.0980272 0.995184 0
    outer loop
      vertex -22.1196 2.58746 0
      vertex -22.5 2.54999 20
      vertex -22.1196 2.58746 20
    endloop
  endfacet
  facet normal -0.0980272 0.995184 0
    outer loop
      vertex -22.5 2.54999 20
      vertex -22.1196 2.58746 0
      vertex -22.5 2.54999 0
    endloop
  endfacet
  facet normal 0.0980272 0.995184 -0
    outer loop
      vertex -22.5 2.54999 0
      vertex -22.8804 2.58746 20
      vertex -22.5 2.54999 20
    endloop
  endfacet
  facet normal 0.0980272 0.995184 0
    outer loop
      vertex -22.8804 2.58746 20
      vertex -22.5 2.54999 0
      vertex -22.8804 2.58746 0
    endloop
  endfacet
  facet normal 0.290284 0.956941 -0
    outer loop
      vertex -7.88043 2.58746 0
      vertex -8.24625 2.69843 20
      vertex -7.88043 2.58746 20
    endloop
  endfacet
  facet normal 0.290284 0.956941 0
    outer loop
      vertex -8.24625 2.69843 20
      vertex -7.88043 2.58746 0
      vertex -8.24625 2.69843 0
    endloop
  endfacet
  facet normal 0.471408 0.881915 -0
    outer loop
      vertex -8.24625 2.69843 0
      vertex -8.58337 2.87863 20
      vertex -8.24625 2.69843 20
    endloop
  endfacet
  facet normal 0.471408 0.881915 0
    outer loop
      vertex -8.58337 2.87863 20
      vertex -8.24625 2.69843 0
      vertex -8.58337 2.87863 0
    endloop
  endfacet
  facet normal 0.634405 0.773001 -0
    outer loop
      vertex -8.58337 2.87863 0
      vertex -8.87886 3.12114 20
      vertex -8.58337 2.87863 20
    endloop
  endfacet
  facet normal 0.634405 0.773001 0
    outer loop
      vertex -8.87886 3.12114 20
      vertex -8.58337 2.87863 0
      vertex -8.87886 3.12114 0
    endloop
  endfacet
  facet normal 0.773001 0.634405 0
    outer loop
      vertex -8.87886 3.12114 20
      vertex -9.12137 3.41663 0
      vertex -9.12137 3.41663 20
    endloop
  endfacet
  facet normal 0.773001 0.634405 0
    outer loop
      vertex -9.12137 3.41663 0
      vertex -8.87886 3.12114 20
      vertex -8.87886 3.12114 0
    endloop
  endfacet
  facet normal 0.881915 0.471408 0
    outer loop
      vertex -9.12137 3.41663 20
      vertex -9.30157 3.75375 0
      vertex -9.30157 3.75375 20
    endloop
  endfacet
  facet normal 0.881915 0.471408 0
    outer loop
      vertex -9.30157 3.75375 0
      vertex -9.12137 3.41663 20
      vertex -9.12137 3.41663 0
    endloop
  endfacet
  facet normal 0.956941 0.290284 0
    outer loop
      vertex -9.30157 3.75375 20
      vertex -9.41254 4.11957 0
      vertex -9.41254 4.11957 20
    endloop
  endfacet
  facet normal 0.956941 0.290284 0
    outer loop
      vertex -9.41254 4.11957 0
      vertex -9.30157 3.75375 20
      vertex -9.30157 3.75375 0
    endloop
  endfacet
  facet normal 0.995184 0.0980195 0
    outer loop
      vertex -9.41254 4.11957 20
      vertex -9.45001 4.5 0
      vertex -9.45001 4.5 20
    endloop
  endfacet
  facet normal 0.995184 0.0980195 0
    outer loop
      vertex -9.45001 4.5 0
      vertex -9.41254 4.11957 20
      vertex -9.41254 4.11957 0
    endloop
  endfacet
  facet normal 0.995184 -0.0980221 0
    outer loop
      vertex -9.45001 4.5 20
      vertex -9.41254 4.88042 0
      vertex -9.41254 4.88042 20
    endloop
  endfacet
  facet normal 0.995184 -0.0980221 0
    outer loop
      vertex -9.41254 4.88042 0
      vertex -9.45001 4.5 20
      vertex -9.45001 4.5 0
    endloop
  endfacet
  facet normal 0.956938 -0.290291 0
    outer loop
      vertex -9.41254 4.88042 20
      vertex -9.30157 5.24623 0
      vertex -9.30157 5.24623 20
    endloop
  endfacet
  facet normal 0.956938 -0.290291 0
    outer loop
      vertex -9.30157 5.24623 0
      vertex -9.41254 4.88042 20
      vertex -9.41254 4.88042 0
    endloop
  endfacet
  facet normal 0.881921 -0.471397 0
    outer loop
      vertex -9.30157 5.24623 20
      vertex -9.12137 5.58336 0
      vertex -9.12137 5.58336 20
    endloop
  endfacet
  facet normal 0.881921 -0.471397 0
    outer loop
      vertex -9.12137 5.58336 0
      vertex -9.30157 5.24623 20
      vertex -9.30157 5.24623 0
    endloop
  endfacet
  facet normal 0.773001 -0.634405 0
    outer loop
      vertex -9.12137 5.58336 20
      vertex -8.87886 5.87885 0
      vertex -8.87886 5.87885 20
    endloop
  endfacet
  facet normal 0.773001 -0.634405 0
    outer loop
      vertex -8.87886 5.87885 0
      vertex -9.12137 5.58336 20
      vertex -9.12137 5.58336 0
    endloop
  endfacet
  facet normal 0.63439 -0.773014 0
    outer loop
      vertex -8.87886 5.87885 0
      vertex -8.58337 6.12135 20
      vertex -8.87886 5.87885 20
    endloop
  endfacet
  facet normal 0.63439 -0.773014 0
    outer loop
      vertex -8.58337 6.12135 20
      vertex -8.87886 5.87885 0
      vertex -8.58337 6.12135 0
    endloop
  endfacet
  facet normal 0.471428 -0.881904 0
    outer loop
      vertex -8.58337 6.12135 0
      vertex -8.24625 6.30156 20
      vertex -8.58337 6.12135 20
    endloop
  endfacet
  facet normal 0.471428 -0.881904 0
    outer loop
      vertex -8.24625 6.30156 20
      vertex -8.58337 6.12135 0
      vertex -8.24625 6.30156 0
    endloop
  endfacet
  facet normal 0.29026 -0.956948 0
    outer loop
      vertex -8.24625 6.30156 0
      vertex -7.88043 6.41252 20
      vertex -8.24625 6.30156 20
    endloop
  endfacet
  facet normal 0.29026 -0.956948 0
    outer loop
      vertex -7.88043 6.41252 20
      vertex -8.24625 6.30156 0
      vertex -7.88043 6.41252 0
    endloop
  endfacet
  facet normal 0.0980454 -0.995182 0
    outer loop
      vertex -7.88043 6.41252 0
      vertex -7.5 6.45 20
      vertex -7.88043 6.41252 20
    endloop
  endfacet
  facet normal 0.0980454 -0.995182 0
    outer loop
      vertex -7.5 6.45 20
      vertex -7.88043 6.41252 0
      vertex -7.5 6.45 0
    endloop
  endfacet
  facet normal -0.098048 -0.995182 0
    outer loop
      vertex -7.5 6.45 0
      vertex -7.11958 6.41252 20
      vertex -7.5 6.45 20
    endloop
  endfacet
  facet normal -0.098048 -0.995182 -0
    outer loop
      vertex -7.11958 6.41252 20
      vertex -7.5 6.45 0
      vertex -7.11958 6.41252 0
    endloop
  endfacet
  facet normal -0.290267 -0.956946 0
    outer loop
      vertex -7.11958 6.41252 0
      vertex -6.75377 6.30156 20
      vertex -7.11958 6.41252 20
    endloop
  endfacet
  facet normal -0.290267 -0.956946 -0
    outer loop
      vertex -6.75377 6.30156 20
      vertex -7.11958 6.41252 0
      vertex -6.75377 6.30156 0
    endloop
  endfacet
  facet normal -0.471418 -0.88191 0
    outer loop
      vertex -6.75377 6.30156 0
      vertex -6.41664 6.12135 20
      vertex -6.75377 6.30156 20
    endloop
  endfacet
  facet normal -0.471418 -0.88191 -0
    outer loop
      vertex -6.41664 6.12135 20
      vertex -6.75377 6.30156 0
      vertex -6.41664 6.12135 0
    endloop
  endfacet
  facet normal -0.63439 -0.773014 0
    outer loop
      vertex -6.41664 6.12135 0
      vertex -6.12115 5.87885 20
      vertex -6.41664 6.12135 20
    endloop
  endfacet
  facet normal -0.63439 -0.773014 -0
    outer loop
      vertex -6.12115 5.87885 20
      vertex -6.41664 6.12135 0
      vertex -6.12115 5.87885 0
    endloop
  endfacet
  facet normal -0.773014 -0.63439 0
    outer loop
      vertex -5.87865 5.58336 0
      vertex -6.12115 5.87885 20
      vertex -6.12115 5.87885 0
    endloop
  endfacet
  facet normal -0.773014 -0.63439 0
    outer loop
      vertex -6.12115 5.87885 20
      vertex -5.87865 5.58336 0
      vertex -5.87865 5.58336 20
    endloop
  endfacet
  facet normal -0.88191 -0.471418 0
    outer loop
      vertex -5.69844 5.24623 0
      vertex -5.87865 5.58336 20
      vertex -5.87865 5.58336 0
    endloop
  endfacet
  facet normal -0.88191 -0.471418 0
    outer loop
      vertex -5.87865 5.58336 20
      vertex -5.69844 5.24623 0
      vertex -5.69844 5.24623 20
    endloop
  endfacet
  facet normal -0.956946 -0.290267 0
    outer loop
      vertex -5.58748 4.88042 0
      vertex -5.69844 5.24623 20
      vertex -5.69844 5.24623 0
    endloop
  endfacet
  facet normal -0.956946 -0.290267 0
    outer loop
      vertex -5.69844 5.24623 20
      vertex -5.58748 4.88042 0
      vertex -5.58748 4.88042 20
    endloop
  endfacet
  facet normal -0.995182 -0.098048 0
    outer loop
      vertex -5.55 4.5 0
      vertex -5.58748 4.88042 20
      vertex -5.58748 4.88042 0
    endloop
  endfacet
  facet normal -0.995182 -0.098048 0
    outer loop
      vertex -5.58748 4.88042 20
      vertex -5.55 4.5 0
      vertex -5.55 4.5 20
    endloop
  endfacet
  facet normal -0.995182 0.0980454 0
    outer loop
      vertex -5.58748 4.11957 0
      vertex -5.55 4.5 20
      vertex -5.55 4.5 0
    endloop
  endfacet
  facet normal -0.995182 0.0980454 0
    outer loop
      vertex -5.55 4.5 20
      vertex -5.58748 4.11957 0
      vertex -5.58748 4.11957 20
    endloop
  endfacet
  facet normal -0.956948 0.29026 0
    outer loop
      vertex -5.69844 3.75375 0
      vertex -5.58748 4.11957 20
      vertex -5.58748 4.11957 0
    endloop
  endfacet
  facet normal -0.956948 0.29026 0
    outer loop
      vertex -5.58748 4.11957 20
      vertex -5.69844 3.75375 0
      vertex -5.69844 3.75375 20
    endloop
  endfacet
  facet normal -0.881904 0.471428 0
    outer loop
      vertex -5.87865 3.41663 0
      vertex -5.69844 3.75375 20
      vertex -5.69844 3.75375 0
    endloop
  endfacet
  facet normal -0.881904 0.471428 0
    outer loop
      vertex -5.69844 3.75375 20
      vertex -5.87865 3.41663 0
      vertex -5.87865 3.41663 20
    endloop
  endfacet
  facet normal -0.773014 0.63439 0
    outer loop
      vertex -6.12115 3.12114 0
      vertex -5.87865 3.41663 20
      vertex -5.87865 3.41663 0
    endloop
  endfacet
  facet normal -0.773014 0.63439 0
    outer loop
      vertex -5.87865 3.41663 20
      vertex -6.12115 3.12114 0
      vertex -6.12115 3.12114 20
    endloop
  endfacet
  facet normal -0.634405 0.773001 0
    outer loop
      vertex -6.12115 3.12114 0
      vertex -6.41664 2.87863 20
      vertex -6.12115 3.12114 20
    endloop
  endfacet
  facet normal -0.634405 0.773001 0
    outer loop
      vertex -6.41664 2.87863 20
      vertex -6.12115 3.12114 0
      vertex -6.41664 2.87863 0
    endloop
  endfacet
  facet normal -0.471397 0.881921 0
    outer loop
      vertex -6.41664 2.87863 0
      vertex -6.75377 2.69843 20
      vertex -6.41664 2.87863 20
    endloop
  endfacet
  facet normal -0.471397 0.881921 0
    outer loop
      vertex -6.75377 2.69843 20
      vertex -6.41664 2.87863 0
      vertex -6.75377 2.69843 0
    endloop
  endfacet
  facet normal -0.290291 0.956938 0
    outer loop
      vertex -6.75377 2.69843 0
      vertex -7.11958 2.58746 20
      vertex -6.75377 2.69843 20
    endloop
  endfacet
  facet normal -0.290291 0.956938 0
    outer loop
      vertex -7.11958 2.58746 20
      vertex -6.75377 2.69843 0
      vertex -7.11958 2.58746 0
    endloop
  endfacet
  facet normal -0.0980221 0.995184 0
    outer loop
      vertex -7.11958 2.58746 0
      vertex -7.5 2.54999 20
      vertex -7.11958 2.58746 20
    endloop
  endfacet
  facet normal -0.0980221 0.995184 0
    outer loop
      vertex -7.5 2.54999 20
      vertex -7.11958 2.58746 0
      vertex -7.5 2.54999 0
    endloop
  endfacet
  facet normal 0.0980195 0.995184 -0
    outer loop
      vertex -7.5 2.54999 0
      vertex -7.88043 2.58746 20
      vertex -7.5 2.54999 20
    endloop
  endfacet
  facet normal 0.0980195 0.995184 0
    outer loop
      vertex -7.88043 2.58746 20
      vertex -7.5 2.54999 0
      vertex -7.88043 2.58746 0
    endloop
  endfacet
endsolid OpenSCAD_Model
